<svg xmlns="http://www.w3.org/2000/svg" width="4711" height="1156" viewBox="0 0 4711 1156" version="1.1"><path d="M 606.500 35.086 C 536.579 40.961, 471.619 58.740, 409.013 89.139 C 388.527 99.086, 388.527 99.086, 383.667 97.920 C 344.105 88.429, 317.123 138.128, 346.667 166.070 C 369.131 187.315, 407.273 175.791, 413.366 145.918 C 414.906 138.369, 415.516 137.917, 438.500 127.272 C 905.601 -89.058, 1356.171 467.898, 1046.522 878.857 C 734.817 1292.542, 72.939 1006.736, 157.576 495 C 162.681 464.136, 177.523 411, 181.039 411 C 204.901 411, 219.975 371.664, 204.814 348.960 C 178.772 309.961, 118.991 340.881, 134.157 385.506 C 136.198 391.513, 136.198 391.513, 130.663 408.231 C -36.206 912.267, 553.997 1334.247, 977.881 1013.971 C 1408.605 688.527, 1143.576 -10.034, 606.500 35.086 M 365.999 124.250 C 359.484 128.697, 357.265 137.040, 360.752 143.980 C 366.822 156.063, 385.512 153.954, 389.058 140.785 C 392.526 127.904, 376.979 116.755, 365.999 124.250 M 1458.599 153.577 C 1393.099 163.761, 1357.587 208.597, 1355.295 284.007 C 1353.144 354.775, 1376.495 397.711, 1456 469.171 C 1511.848 519.368, 1527.398 546.291, 1527.229 592.500 C 1527.081 633.032, 1509.323 651.415, 1474.574 647.009 C 1446.550 643.456, 1438.133 628.730, 1437.276 581.750 C 1436.596 544.532, 1352.993 538.084, 1353.009 575.250 C 1353.052 678.381, 1391.511 725.478, 1477.500 727.700 C 1568.162 730.042, 1616 680.867, 1616 585.327 C 1616 512.831, 1593.674 472.098, 1516 402.883 C 1460.464 353.395, 1444.054 326.616, 1444.013 285.410 C 1443.976 248.444, 1461.303 229.425, 1492.106 232.620 C 1520.097 235.523, 1529.706 250.609, 1530.727 293.250 C 1531.457 323.743, 1615.008 330.684, 1614.991 300.250 C 1614.933 192.433, 1557.163 138.254, 1458.599 153.577 M 2797.599 153.577 C 2733.759 163.503, 2700.281 204.965, 2695.924 279.500 C 2694.388 305.785, 2695.244 606.694, 2696.886 617.500 C 2708.210 692.014, 2750.095 728, 2825.500 728 C 2904.863 728, 2949.445 685.410, 2954.961 604.322 C 2960.951 516.265, 2958.603 510.962, 2913.750 511.239 C 2871.500 511.500, 2871.500 511.500, 2870.954 563 C 2870.548 601.286, 2870.074 615.526, 2869.107 618.500 C 2855.801 659.415, 2796.923 657.831, 2786.241 616.271 C 2783.475 605.512, 2783.563 273.820, 2786.334 264 C 2792.999 240.383, 2809.913 229.756, 2835.647 233.019 C 2865.224 236.769, 2870.962 249.231, 2870.985 309.761 C 2871 349.022, 2871 349.022, 2913.250 348.761 C 2958.986 348.478, 2959.498 347.607, 2955.087 277.500 C 2949.377 186.760, 2889.124 139.348, 2797.599 153.577 M 3240.698 153.511 C 3174.597 164.192, 3139.300 206.737, 3134.991 280.920 C 3133.736 302.524, 3133.733 577.418, 3134.987 599 C 3139.812 682.017, 3183.212 725.742, 3262.784 727.751 C 3343.181 729.782, 3388.716 693.214, 3400.693 617 C 3403.468 599.342, 3403.480 280.784, 3400.707 263 C 3388.062 181.921, 3326.323 139.674, 3240.698 153.511 M 4532.870 153.539 C 4477.966 162.094, 4445.325 194.251, 4433.802 251.138 C 4430.190 268.965, 4430.172 610.947, 4433.781 628.755 C 4447.224 695.078, 4489.259 728, 4560.500 728 C 4639.562 728, 4684.192 685.668, 4689.997 605.171 C 4696.295 517.828, 4693.329 511, 4649.095 511 C 4607.189 511, 4607.189 511, 4606.729 560.250 C 4606.340 601.835, 4606.010 610.497, 4604.609 615.907 C 4593.477 658.891, 4532.266 659.255, 4521.271 616.404 C 4518.478 605.517, 4518.537 273.912, 4521.334 264 C 4527.999 240.383, 4544.913 229.756, 4570.647 233.019 C 4600.032 236.744, 4605.926 249.283, 4606.720 309.761 C 4607.235 349.022, 4607.235 349.022, 4648.868 348.761 C 4693.709 348.480, 4694.801 346.562, 4690.063 276.416 C 4683.995 186.577, 4623.637 139.395, 4532.870 153.539 M 1863.549 161.250 C 1862.993 163.038, 1772.962 717.245, 1772.983 718.750 C 1773.031 722.226, 1854.735 720.242, 1855.347 716.750 C 1855.660 714.962, 1859.096 691.450, 1862.983 664.500 C 1866.869 637.550, 1870.273 614.483, 1870.546 613.241 C 1885.314 546.059, 1981.477 633.988, 1985.934 718.750 C 1985.986 719.730, 1995.618 720, 2030.579 720 C 2075.159 720, 2075.159 720, 2074.574 717.250 C 2073.802 713.619, 1984 161.968, 1984 160.858 C 1984 159.383, 1864.008 159.773, 1863.549 161.250 M 2244 379.326 C 2244 627.210, 2243.804 621.082, 2252.596 647.604 C 2270.828 702.600, 2309.587 727.578, 2376.500 727.453 C 2429.241 727.355, 2463.934 711.188, 2485.411 676.701 C 2533.753 599.076, 2516.021 160, 2464.544 160 C 2422.047 160, 2422.047 160, 2421.741 384.250 C 2421.404 631.451, 2421.875 613.420, 2415.423 626.152 C 2400.712 655.183, 2351.600 655.012, 2338.529 625.885 C 2332.845 613.221, 2333.073 623.298, 2333.035 382.250 C 2333 160, 2333 160, 2288.500 160 C 2244 160, 2244 160, 2244 379.326 M 3567 200 C 3567 240, 3567 240, 3613 240 C 3659 240, 3659 240, 3659 480 C 3659 720, 3659 720, 3703.500 720 C 3748 720, 3748 720, 3748 480 C 3748 240, 3748 240, 3794 240 C 3840 240, 3840 240, 3840 200 C 3840 160, 3840 160, 3703.500 160 C 3567 160, 3567 160, 3567 200 M 4013 440 C 4013 720, 4013 720, 4133.500 720 C 4254 720, 4254 720, 4254 680 C 4254 640, 4254 640, 4178 640 C 4102 640, 4102 640, 4102 554 C 4102 468, 4102 468, 4162.500 468 C 4223 468, 4223 468, 4223 428 C 4223 388, 4223 388, 4162.500 388 C 4102 388, 4102 388, 4102 314 C 4102 240, 4102 240, 4178 240 C 4254 240, 4254 240, 4254 200 C 4254 160, 4254 160, 4133.500 160 C 4013 160, 4013 160, 4013 440 M 614.286 168.396 C 585.800 177.671, 576.962 212.940, 597.596 234.999 C 612.722 251.170, 639.524 250.908, 655.610 234.432 C 661.089 228.819, 661.089 228.819, 675.295 229.961 C 916.708 249.376, 1066.612 499.955, 968.919 720.783 C 863.008 960.187, 540.858 1002.141, 375.654 798.045 C 366.510 786.749, 366.652 787.679, 373.750 785.544 C 388.988 780.958, 400.872 776.888, 404.500 775.012 C 408.500 772.943, 408.500 772.943, 408.809 775.398 C 409.463 780.585, 412.453 780.799, 423 776.417 C 426.500 774.962, 426.500 774.962, 440.500 788.761 C 536.410 883.294, 685.432 902.297, 798.169 834.370 C 803.837 830.954, 803.837 830.954, 810.895 832.120 C 848.524 838.334, 872.415 792.524, 846.073 764.670 C 823.569 740.876, 784.087 752.865, 777.582 785.467 C 776.379 791.500, 776.379 791.500, 759.439 800.078 C 666.277 847.253, 555.648 830.502, 477.073 757.323 C 469.647 750.406, 469.647 750.406, 473.073 748.303 C 474.958 747.146, 478.226 744.930, 480.336 743.378 C 483.833 740.808, 484.258 740.710, 485.136 742.279 C 488.501 748.292, 499.617 739.882, 544.868 697.088 C 575.256 668.351, 576.065 668.009, 593.270 676.619 C 612.733 686.361, 616.514 690.504, 615.451 700.930 C 613.092 724.077, 609.610 732.142, 596.306 745.269 C 579.510 761.842, 573.807 773.582, 579.750 779.348 C 594.160 793.330, 601.693 791.493, 608.412 772.361 C 609.930 768.037, 611.685 763.375, 612.313 762 C 614.101 758.083, 624.775 745.124, 630.923 739.406 C 641.121 729.920, 642.462 728.793, 648.192 724.886 C 651.322 722.751, 654.545 720.061, 655.353 718.907 C 656.380 717.440, 657.433 717.003, 658.852 717.453 C 660.245 717.895, 662.204 717.140, 665.091 715.049 C 667.406 713.372, 669.981 712, 670.812 712 C 671.644 712, 674.519 710.592, 677.200 708.871 C 679.882 707.151, 682.338 706.005, 682.659 706.325 C 682.979 706.646, 684.837 705.824, 686.788 704.498 C 688.738 703.173, 690.717 702.325, 691.185 702.615 C 691.653 702.904, 693.627 702.158, 695.571 700.956 C 697.515 699.755, 699.368 699.035, 699.690 699.356 C 700.011 699.678, 701.501 699.068, 703 698 C 704.499 696.932, 705.977 696.310, 706.284 696.618 C 706.592 696.925, 708.829 696.012, 711.256 694.590 C 713.684 693.167, 715.934 692.268, 716.257 692.591 C 716.580 692.914, 718.530 692.033, 720.589 690.633 C 722.649 689.234, 724.729 688.332, 725.211 688.630 C 725.693 688.928, 726.752 688.621, 727.565 687.946 C 728.377 687.272, 730.143 686.600, 731.488 686.452 C 732.833 686.304, 735.237 685.255, 736.830 684.121 C 738.423 682.987, 739.971 682.304, 740.270 682.603 C 740.569 682.903, 742.206 682.428, 743.907 681.548 C 745.608 680.668, 747 680.201, 747 680.510 C 747 680.818, 747.956 680.559, 749.124 679.933 C 753.170 677.768, 763.422 677.282, 768 679.039 C 768.275 679.144, 768.950 679.316, 769.500 679.420 C 771.696 679.836, 775.844 681.939, 776.472 682.955 C 776.838 683.548, 777.506 683.805, 777.956 683.527 C 778.405 683.249, 779.305 683.663, 779.956 684.447 C 780.606 685.230, 782.452 686.160, 784.058 686.513 C 785.663 686.865, 787.234 687.569, 787.548 688.077 C 787.861 688.585, 788.737 689, 789.494 689 C 790.251 689, 792.137 689.514, 793.685 690.141 C 796.562 691.308, 797.590 691.566, 802.042 692.240 C 803.441 692.452, 805.233 693.026, 806.025 693.515 C 809.273 695.523, 840.570 695.644, 843.750 693.661 C 844.469 693.213, 845 693.357, 845 694 C 845 694.643, 845.531 694.787, 846.250 694.339 C 846.938 693.910, 849.397 693.518, 851.715 693.466 C 855.970 693.372, 857.025 694.239, 857.468 698.200 C 857.822 701.360, 868 714.167, 868 711.452 C 868 710.959, 868.706 711.563, 869.568 712.794 C 870.431 714.026, 871.501 714.808, 871.947 714.533 C 872.393 714.257, 874.156 714.730, 875.866 715.583 C 877.576 716.436, 879.430 716.852, 879.987 716.508 C 880.544 716.164, 881 716.290, 881 716.789 C 881 717.288, 882.462 717.789, 884.250 717.903 C 886.038 718.016, 889.075 718.219, 891 718.353 C 892.925 718.487, 895.680 718.031, 897.123 717.338 C 898.566 716.646, 899.990 716.323, 900.288 716.621 C 900.585 716.919, 901.861 716.610, 903.122 715.935 C 904.384 715.259, 906.197 714.660, 907.151 714.603 C 909.470 714.465, 925 703.045, 925 701.478 C 925 700.800, 925.695 699.668, 926.546 698.962 C 927.396 698.257, 927.871 697.106, 927.602 696.404 C 927.333 695.703, 927.560 694.980, 928.107 694.798 C 928.654 694.615, 929.354 692.899, 929.663 690.983 C 930.296 687.060, 930.754 684.738, 931.042 684 C 931.149 683.725, 931.168 683.115, 931.083 682.645 C 930.999 682.174, 931.416 681.204, 932.009 680.489 C 935.074 676.796, 933.757 669.222, 929.790 667.735 C 928.850 667.382, 926.816 665.349, 925.271 663.216 C 920.542 656.688, 916.948 652.719, 916.326 653.341 C 916.001 653.666, 914.858 652.818, 913.787 651.457 C 912.716 650.095, 911.422 649.239, 910.912 649.554 C 910.402 649.870, 909.277 649.420, 908.412 648.555 C 907.547 647.689, 906.456 647.218, 905.988 647.507 C 905.521 647.796, 904.851 647.568, 904.500 647 C 904.149 646.432, 903.494 646.195, 903.044 646.473 C 899.649 648.571, 900.115 643.635, 903.724 639.268 C 905.891 636.645, 907.968 633.825, 908.341 633 C 908.713 632.175, 909.921 630.007, 911.026 628.183 C 912.131 626.358, 912.775 624.445, 912.458 623.933 C 912.141 623.420, 912.350 623, 912.921 623 C 913.493 623, 913.803 621.641, 913.609 619.979 C 913.416 618.318, 913.610 616.741, 914.040 616.475 C 914.471 616.209, 914.621 614.756, 914.374 613.246 C 914.127 611.736, 913.794 608.925, 913.634 607 C 913.266 602.577, 912.173 598.174, 910.687 595.126 C 910.050 593.820, 909.518 592.245, 909.503 591.626 C 909.489 591.007, 908.666 588.925, 907.675 587 C 905.873 583.500, 905.873 583.500, 909.786 587.550 C 911.938 589.778, 914.217 591.428, 914.850 591.217 C 915.482 591.006, 916 591.332, 916 591.941 C 916 592.551, 917.237 593.516, 918.750 594.086 C 920.263 594.656, 922.850 595.801, 924.500 596.630 C 927.128 597.951, 933.577 599.326, 936.500 599.188 C 948.440 598.627, 950.382 598.092, 957.073 593.521 C 965.675 587.643, 973 581.205, 973 579.522 C 973 578.803, 973.675 577.955, 974.500 577.638 C 975.325 577.322, 976 576.429, 976 575.654 C 976 574.879, 976.670 573.689, 977.489 573.009 C 978.308 572.329, 978.765 571.429, 978.505 571.008 C 978.245 570.587, 978.730 568.844, 979.583 567.134 C 980.436 565.424, 980.871 563.601, 980.551 563.082 C 980.230 562.563, 980.364 561.893, 980.849 561.593 C 981.334 561.294, 981.535 559.800, 981.296 558.274 C 981.058 556.748, 980.887 554.510, 980.916 553.300 C 980.945 552.089, 980.546 550.837, 980.028 550.518 C 979.511 550.198, 979.316 549.340, 979.595 548.612 C 979.875 547.885, 979.135 545.649, 977.953 543.645 C 976.770 541.640, 976.089 540, 976.438 540 C 976.788 540, 975.220 537.269, 972.953 533.931 C 968.832 527.863, 968.832 527.863, 971.416 522.582 C 972.837 519.677, 974 516.585, 974 515.709 C 974 514.834, 974.481 513.821, 975.068 513.458 C 975.656 513.095, 975.895 512.168, 975.600 511.399 C 975.304 510.629, 975.412 510, 975.839 510 C 977.080 510, 976.097 502.739, 973.297 491.224 C 972.377 487.443, 961.304 472, 959.512 472 C 958.851 472, 957.495 471.100, 956.500 470 C 955.505 468.900, 954.140 468, 953.467 468 C 952.795 468, 951.689 467.330, 951.009 466.511 C 950.329 465.692, 949.425 465.237, 949 465.500 C 948.575 465.763, 947.675 465.313, 947 464.500 C 946.325 463.687, 945.405 463.249, 944.956 463.527 C 944.506 463.805, 943.851 463.568, 943.500 463 C 943.149 462.432, 942.423 462.238, 941.887 462.570 C 941.351 462.901, 940.370 462.743, 939.706 462.218 C 938.012 460.879, 917.727 461.722, 915.389 463.229 C 913.418 464.501, 913.058 462.841, 914.747 460.264 C 917.043 456.759, 918.321 440.121, 916.844 432.947 C 916.092 429.295, 912.757 422, 911.839 422 C 911.412 422, 911.296 421.392, 911.582 420.648 C 911.868 419.901, 910.961 418.549, 909.557 417.629 C 908.157 416.712, 907.122 415.450, 907.256 414.823 C 907.596 413.236, 892.073 400.758, 890.506 401.359 C 889.804 401.629, 888.390 401.273, 887.365 400.568 C 882.887 397.491, 870.214 396.517, 864.685 398.825 C 863.137 399.471, 861.492 400, 861.029 400 C 860.567 400, 858.400 400.955, 856.213 402.122 C 852.238 404.244, 852.238 404.244, 846.663 400.036 C 843.597 397.721, 840.686 396.076, 840.194 396.380 C 839.701 396.685, 837.814 395.838, 836 394.500 C 834.186 393.162, 832.319 392.303, 831.851 392.592 C 831.383 392.881, 830.438 392.757, 829.750 392.316 C 828.671 391.623, 826.478 391.217, 822.500 390.972 C 818.959 390.754, 812.917 391.824, 811.622 392.899 C 810.778 393.599, 809.618 393.882, 809.044 393.527 C 808.470 393.172, 808 393.315, 808 393.843 C 808 394.372, 806.650 395.275, 805 395.850 C 803.350 396.425, 802 397.369, 802 397.948 C 802 398.527, 801.197 399, 800.215 399 C 798.061 399, 783.172 417.365, 782.379 421 C 782.078 422.375, 781.575 424.175, 781.260 425 C 780.165 427.869, 780.393 442.103, 781.578 444.793 C 782.234 446.282, 783.509 449.168, 784.412 451.208 C 785.315 453.247, 786.499 455.190, 787.043 455.527 C 787.587 455.863, 787.804 456.508, 787.525 456.960 C 787.245 457.412, 788.814 459.406, 791.011 461.391 C 795.201 465.177, 794.642 466.436, 790.290 463.014 C 788.901 461.921, 787.348 461.285, 786.838 461.600 C 786.329 461.915, 784.768 461.423, 783.369 460.506 C 781.971 459.590, 780.581 459.085, 780.282 459.385 C 779.982 459.685, 778.807 459.432, 777.670 458.824 C 774.274 457.006, 764.369 456.284, 757.445 457.350 C 751.133 458.322, 742.132 463.336, 736.350 469.101 C 734.201 471.244, 734.201 471.244, 733.065 469.122 C 732.441 467.955, 732.226 467, 732.587 467 C 732.949 467, 732.685 466.325, 732 465.500 C 731.315 464.675, 731.105 464, 731.533 464 C 731.960 464, 731.658 463.212, 730.862 462.250 C 730.065 461.287, 728.795 459.262, 728.038 457.750 C 727.281 456.238, 726.262 455, 725.772 455 C 725.282 455, 725.156 454.556, 725.491 454.014 C 726.126 452.988, 721.783 448.799, 714.967 443.861 C 712.785 442.281, 711 440.370, 711 439.616 C 711 436.764, 703.817 433.868, 702.407 436.151 C 702.107 436.636, 701.479 436.796, 701.012 436.507 C 700.544 436.218, 699.562 436.548, 698.831 437.241 C 698.099 437.933, 696.150 438.578, 694.500 438.672 C 688.011 439.045, 685.834 439.495, 684.864 440.664 C 684.308 441.333, 683.215 441.636, 682.435 441.337 C 681.655 441.037, 680.740 441.514, 680.401 442.396 C 680.063 443.278, 678.972 444, 677.976 444 C 676.981 444, 675.244 445.238, 674.115 446.750 C 672.063 449.500, 672.063 449.500, 671.948 447 C 671.885 445.625, 671.716 443.600, 671.573 442.500 C 671.430 441.400, 670.978 437.575, 670.568 434 C 670.159 430.425, 669.232 425.700, 668.510 423.500 C 667.787 421.300, 666.966 418.150, 666.685 416.500 C 666.021 412.600, 662.730 402.128, 658.044 389 C 655.982 383.225, 653.441 375.850, 652.398 372.611 C 649.970 365.078, 647.468 363.189, 642.986 365.507 C 638.461 367.847, 631 359.045, 631 351.366 C 631 348.832, 623.118 334.655, 617.537 327.153 C 614.767 323.428, 609.939 316.582, 606.808 311.940 C 587.860 283.845, 561.231 259.854, 556.825 266.908 C 554.834 270.097, 554.380 269.812, 541.116 257.027 C 525.097 241.585, 496.286 222, 489.590 222 C 488.831 222, 484.923 220.601, 480.906 218.892 C 476.888 217.182, 469.979 215.191, 465.551 214.467 C 461.123 213.742, 455.441 212.681, 452.924 212.109 C 444.166 210.119, 439.817 212.148, 441.872 217.264 C 445.067 225.219, 444.665 225.483, 436.035 221.097 C 432.893 219.501, 425.638 216.841, 419.911 215.188 C 395.187 208.047, 391.878 206.972, 386.966 204.483 C 373.232 197.523, 356.928 194.378, 331.500 193.781 C 317.733 193.459, 316.270 194.555, 321.433 201.324 C 324.478 205.316, 324.519 205.573, 322.250 206.506 C 313.786 209.990, 280.285 211.683, 253.500 209.981 C 237.716 208.978, 231.498 208.965, 224 209.918 C 208.607 211.875, 199.020 212.845, 190.404 213.319 C 175.800 214.123, 174.723 216.658, 185.057 225.911 C 197.467 237.022, 217.417 270.254, 223.068 289.228 C 224.218 293.089, 226.473 298.677, 228.079 301.647 C 232.500 309.818, 231.119 313, 223.153 313 C 214.009 313, 216.088 318.218, 231.250 333.316 C 275.224 377.108, 287.805 393, 278.498 393 C 272.155 393, 271.448 400.534, 277.250 406.295 C 283.683 412.682, 302.982 433.529, 304.597 435.835 C 305.379 436.951, 307.252 439.154, 308.759 440.730 C 310.267 442.306, 314.875 447.388, 319 452.023 C 323.125 456.659, 329.650 463.388, 333.500 466.976 C 350.066 482.416, 351.405 484.301, 347.119 486.147 C 343.939 487.515, 342 489.562, 342 491.548 C 342 491.760, 344.052 494.311, 346.559 497.217 C 361.830 514.914, 376.890 526.589, 425.265 558.232 C 432.142 562.730, 445.357 570.531, 447.500 571.357 C 452.269 573.195, 445.689 575.472, 436.877 575.033 C 418.503 574.117, 418.604 574.104, 418 577.500 C 416.469 586.113, 401.479 581.279, 401.721 572.250 C 401.843 567.712, 401.793 564, 401.612 564 C 401.430 564, 398.631 565.344, 395.391 566.987 C 392.151 568.630, 389.037 569.980, 388.471 569.987 C 387.905 569.994, 386.321 573.033, 384.952 576.740 C 382.466 583.471, 382.455 583.482, 377.981 584.129 C 358.469 586.949, 336.333 597.081, 340.008 601.509 C 340.807 602.473, 338.556 603.755, 330.323 607.024 C 312.669 614.033, 291.395 629.547, 286.511 638.975 C 281.414 648.811, 269.295 653.790, 260.950 649.474 C 257.113 647.490, 257.109 648.296, 260.861 665.301 C 263.686 678.102, 263.686 678.102, 261.093 680.116 C 247.694 690.524, 233.027 718.069, 241.627 716.673 C 247.306 715.751, 242.973 732.006, 232.209 752 C 224.190 766.896, 222.433 770.865, 220.111 779.329 C 218.981 783.445, 216.912 789.403, 215.512 792.568 C 211.543 801.543, 213.345 803.905, 221.129 799.934 C 228.330 796.261, 240.776 794.629, 260.882 794.724 C 280.505 794.816, 281.666 795.117, 279.940 799.658 C 278.462 803.545, 281.518 807.351, 284.377 805.182 C 284.995 804.714, 290.225 802.643, 296 800.581 C 301.775 798.520, 308.282 796.194, 310.459 795.415 C 313.876 794.191, 314.527 794.191, 315.212 795.414 C 337.197 834.699, 395.354 890.703, 444.632 920.042 C 682.541 1061.690, 989.291 923.210, 1039.486 651.500 C 1082.847 416.782, 908.805 194.612, 672 182.393 C 658.500 181.696, 658.500 181.696, 653.692 177.393 C 643.491 168.263, 626.562 164.398, 614.286 168.396 M 617.999 194.250 C 604.625 203.379, 612.014 223.310, 628.197 221.755 C 639.503 220.669, 645.003 208.595, 638.856 198.356 C 635.060 192.034, 624.339 189.923, 617.999 194.250 M 3259 233.107 C 3241.525 235.623, 3230.382 246.710, 3225.250 266.688 C 3222.513 277.344, 3222.552 602.800, 3225.292 613.500 C 3236.963 659.076, 3298.287 660.701, 3311.134 615.775 C 3313.871 606.204, 3314.990 281.506, 3312.330 269 C 3306.511 241.648, 3287.684 228.978, 3259 233.107 M 1919.734 259 C 1919.415 259.825, 1910.788 321.250, 1900.563 395.500 C 1890.339 469.750, 1881.797 531.288, 1881.580 532.250 C 1881.211 533.894, 1883.572 534, 1920.403 534 C 1959.619 534, 1959.619 534, 1951.317 475.250 C 1929.462 320.595, 1920.266 257.626, 1919.734 259 M 164.962 358.250 C 148.954 366.322, 157.583 390.081, 175.250 386.578 C 192.151 383.228, 188.812 356, 171.500 356 C 170.358 356, 167.416 357.012, 164.962 358.250 M 802.938 472.250 C 802.180 475.298, 802.165 480.984, 802.915 481.447 C 803.464 481.787, 803.659 482.725, 803.349 483.532 C 803.040 484.339, 803.212 485, 803.732 485 C 804.253 485, 804.598 486.352, 804.500 488.005 C 804.184 493.314, 808.473 497.873, 811 494.915 C 812.847 492.753, 823.360 489.122, 825.091 490.049 C 827.383 491.275, 827.550 493.299, 825.500 495 C 824.675 495.685, 824 495.910, 824 495.500 C 824 495.090, 823.298 495.337, 822.441 496.049 C 821.583 496.761, 819.750 497.464, 818.366 497.611 C 816.982 497.759, 815.321 498.305, 814.675 498.824 C 814.029 499.344, 812.043 500.081, 810.262 500.461 C 806.917 501.177, 802.590 505.528, 803.600 507.162 C 803.915 507.671, 803.510 509.099, 802.701 510.334 C 801.891 511.569, 801.410 513.912, 801.632 515.540 C 801.853 517.168, 802.179 519.530, 802.356 520.789 C 802.921 524.810, 806.361 526.167, 815.700 526.057 C 816.911 526.042, 818.163 526.454, 818.482 526.972 C 818.802 527.489, 819.730 527.657, 820.545 527.344 C 821.359 527.032, 822.656 527.299, 823.426 527.939 C 827.319 531.169, 829.746 530.264, 834.004 523.995 C 836.255 520.679, 837.865 517.591, 837.582 517.132 C 837.298 516.674, 838.176 514.794, 839.533 512.955 C 840.890 511.116, 842 508.981, 842 508.210 C 842 507.439, 842.635 505.614, 843.411 504.154 C 845.430 500.357, 847.519 494.636, 847.224 493.709 C 847.086 493.275, 847.428 492.069, 847.984 491.030 C 848.838 489.435, 848.239 488.548, 844.132 485.321 C 839.715 481.850, 837.334 478.989, 834.500 473.742 C 833.652 472.172, 832.740 471.989, 828.500 472.535 C 820.214 473.602, 809.980 473.776, 809.414 472.860 C 808.954 472.117, 803.108 471.566, 802.938 472.250 M 861.398 492.820 C 859.667 494.004, 855.722 500.139, 855.590 501.853 C 855.520 502.759, 854.823 504.625, 854.043 506 C 853.262 507.375, 852.566 509.176, 852.497 510.003 C 852.427 510.829, 850.937 513.484, 849.185 515.903 C 847.433 518.321, 846 520.833, 846 521.484 C 846 522.136, 844.150 525.309, 841.890 528.536 C 834.748 538.731, 835.626 540.906, 844.500 535 C 847.800 532.804, 851.094 531.005, 851.820 531.003 C 852.546 531.001, 855.142 529.623, 857.589 527.939 C 860.036 526.255, 862.900 524.712, 863.954 524.509 C 865.008 524.306, 866.838 523.622, 868.021 522.989 C 869.204 522.356, 870.427 522.093, 870.739 522.406 C 872.635 524.302, 881.296 516.508, 880.407 513.706 C 880.075 512.662, 879.779 509.335, 879.749 506.314 C 879.712 502.569, 879.249 500.649, 878.296 500.283 C 877.325 499.911, 877.090 498.868, 877.528 496.873 C 878.224 493.702, 878.418 493.788, 870.500 493.780 C 867.750 493.777, 864.801 493.407, 863.946 492.957 C 863.091 492.508, 861.945 492.446, 861.398 492.820 M 722.845 505.250 C 719.958 508.137, 717.274 510.500, 716.881 510.500 C 716.488 510.500, 715.792 510.877, 715.333 511.338 C 712.965 513.720, 705.150 515.894, 697.128 516.402 C 691.355 516.767, 689.110 522.309, 688.580 537.500 C 688.503 539.700, 688.090 542.063, 687.661 542.750 C 687.233 543.438, 687.252 544, 687.704 544 C 688.157 544, 688.573 546.138, 688.630 548.750 C 688.718 552.761, 689.566 559.675, 690.439 563.500 C 691.409 567.748, 694.422 576.726, 695.207 577.706 C 695.738 578.370, 695.880 579.385, 695.523 579.963 C 695.165 580.541, 695.603 581.294, 696.494 581.636 C 697.386 581.978, 697.897 582.827, 697.630 583.523 C 697.363 584.218, 698.223 585.800, 699.541 587.039 C 700.860 588.277, 701.710 589.660, 701.431 590.111 C 701.152 590.563, 702.795 592.288, 705.083 593.945 C 709.032 596.806, 718.990 590.028, 716.576 586.123 C 716.265 585.620, 716.863 584.156, 717.904 582.870 C 719.778 580.556, 718.139 572.577, 714.952 568.500 C 711.967 564.680, 713.696 555.458, 717.013 557.508 C 718.205 558.245, 723 568.198, 723 569.936 C 723 573.258, 729.678 565.268, 730.509 560.952 C 730.707 559.927, 732.023 557.389, 733.434 555.312 C 734.845 553.235, 736 550.934, 736 550.198 C 736 549.462, 737.372 546.867, 739.048 544.430 C 740.724 541.994, 741.805 540, 741.449 540 C 741.094 540, 741.765 538.368, 742.942 536.374 C 744.119 534.380, 744.856 532.523, 744.581 532.247 C 744.305 531.972, 744.782 530.388, 745.641 528.728 C 747.170 525.771, 747.138 525.659, 744.091 523.274 C 742.381 521.936, 741.211 520.467, 741.493 520.011 C 741.775 519.555, 740.542 517.944, 738.753 516.430 C 736.964 514.916, 735.644 513.205, 735.821 512.627 C 735.997 512.049, 735.494 511.103, 734.704 510.525 C 733.913 509.947, 732.295 507.342, 731.108 504.737 C 728.479 498.966, 729.173 498.923, 722.845 505.250 M 789.450 526.938 C 788.928 527.454, 787.375 528.028, 786 528.214 C 784.625 528.399, 782.938 528.903, 782.250 529.334 C 781.563 529.765, 781 529.797, 781 529.404 C 781 529.011, 780.208 529.407, 779.240 530.283 C 778.271 531.160, 776.235 531.740, 774.715 531.573 C 773.195 531.406, 771.748 531.598, 771.500 532 C 771.252 532.402, 769.800 532.547, 768.274 532.323 C 758.682 530.914, 758.339 531, 755.013 535.631 C 753.289 538.032, 752.116 540.379, 752.406 540.848 C 752.696 541.318, 751.824 543.206, 750.467 545.045 C 749.110 546.884, 748 549.138, 748 550.055 C 748 550.971, 746.913 553.322, 745.585 555.279 C 744.257 557.236, 743.401 559.067, 743.682 559.348 C 743.963 559.629, 742.817 561.859, 741.136 564.303 C 739.455 566.746, 738.324 568.990, 738.622 569.289 C 738.921 569.588, 737.554 572.227, 735.583 575.153 C 733.612 578.079, 732 581.177, 732 582.037 C 732 582.896, 731.505 584.095, 730.901 584.699 C 730.228 585.372, 730.112 586.711, 730.602 588.149 C 731.042 589.442, 731.434 590.950, 731.473 591.500 C 731.562 592.740, 734.981 592.220, 737 590.660 C 739.958 588.373, 743.097 586.942, 743.972 587.482 C 744.461 587.785, 745.162 587.548, 745.528 586.955 C 748.340 582.405, 764.250 581.497, 770.412 585.534 C 771.870 586.489, 773.346 586.987, 773.693 586.640 C 774.040 586.293, 775.855 587.178, 777.728 588.606 C 782.047 591.900, 782.497 591.384, 780.087 585.905 C 779.021 583.482, 777.932 579.925, 777.666 578 C 777.401 576.075, 777.104 574.500, 777.007 574.500 C 776.647 574.500, 775.829 565.375, 775.886 562 C 775.919 560.075, 775.965 557.510, 775.988 556.300 C 776.012 555.089, 776.481 553.821, 777.032 553.480 C 777.582 553.140, 777.779 552.452, 777.470 551.952 C 777.161 551.451, 777.410 550.103, 778.024 548.956 C 778.638 547.809, 779.317 545.951, 779.533 544.828 C 780.077 542.006, 784.802 536, 786.478 536 C 788.851 536, 794.105 528.831, 792.844 527.312 C 791.554 525.758, 790.737 525.667, 789.450 526.938 M 881.675 530.149 C 880.671 530.718, 879.602 530.935, 879.298 530.632 C 878.995 530.328, 877.467 530.741, 875.903 531.550 C 874.340 532.359, 872.709 532.935, 872.280 532.830 C 871.432 532.623, 865.747 535.032, 859.663 538.177 C 857.553 539.267, 855.586 539.919, 855.292 539.625 C 854.594 538.927, 843 546.800, 843 547.972 C 843 548.466, 843.468 550.100, 844.039 551.603 C 845.398 555.178, 846.024 559.204, 846.313 566.238 C 846.598 573.194, 848.248 575.178, 853.900 575.365 C 856.154 575.439, 857.999 575.889, 858 576.365 C 858 576.841, 859.152 576.475, 860.561 575.552 C 861.970 574.629, 863.657 574.063, 864.311 574.294 C 866.057 574.912, 870.999 571.138, 871.006 569.182 C 871.010 568.257, 871.599 566.375, 872.316 565 C 873.034 563.625, 874.464 560.154, 875.495 557.286 C 877.664 551.252, 879.725 549.942, 882.214 553.016 C 883.862 555.051, 883.853 555.283, 882.020 557.827 C 875.302 567.149, 875.493 572.482, 882.584 573.571 C 888.441 574.471, 889.362 574.665, 891 575.345 C 892.249 575.863, 894.913 575.788, 899.230 575.114 C 899.632 575.051, 899.718 573.538, 899.420 571.750 C 898.595 566.786, 898.261 556.624, 898.887 555.500 C 900.331 552.906, 900.764 544.451, 899.440 544.684 C 898.204 544.902, 889.442 536.865, 885.948 532.308 C 883.940 529.689, 883.172 529.301, 881.675 530.149 M 680.667 537.667 C 680.300 538.033, 679.990 539.946, 679.978 541.917 C 679.891 556.423, 670.041 580.899, 660.298 590.821 C 659.584 591.548, 659 592.536, 659 593.016 C 659 593.496, 657.396 595.601, 655.435 597.694 C 630.464 624.354, 618.065 669.769, 629.919 691.158 C 633.947 698.427, 643.811 708.269, 646.391 707.594 C 651.743 706.192, 669.556 688.223, 667.566 686.233 C 667.276 685.942, 667.857 684.084, 668.858 682.102 C 673.245 673.417, 674.482 670.550, 674.211 669.688 C 674.052 669.182, 674.615 667.711, 675.461 666.419 C 676.308 665.127, 677 663.484, 677 662.767 C 677 662.051, 678.125 659.809, 679.500 657.785 C 680.875 655.762, 682 653.389, 682 652.513 C 682 651.636, 682.981 649.593, 684.179 647.972 C 685.377 646.351, 686.066 644.732, 685.709 644.375 C 685.351 644.018, 685.995 642.412, 687.139 640.805 C 688.282 639.199, 688.950 637.617, 688.622 637.289 C 688.295 636.961, 688.933 635.226, 690.042 633.432 C 691.150 631.639, 691.952 629.795, 691.823 629.336 C 691.694 628.876, 692.368 627.038, 693.320 625.250 C 694.272 623.462, 694.799 622, 694.490 622 C 694.182 622, 694.441 621.044, 695.067 619.876 C 697.899 614.582, 697.889 600.981, 695.049 597.559 C 694.337 596.702, 694.105 596, 694.533 596 C 694.960 596, 694.627 595.212, 693.792 594.250 C 692.957 593.288, 691.460 590.250, 690.465 587.500 C 689.470 584.750, 688.312 582.039, 687.892 581.475 C 687.472 580.911, 686.976 579.336, 686.789 577.975 C 686.602 576.614, 686.032 574.833, 685.522 574.018 C 685.012 573.202, 684.499 571.852, 684.383 571.018 C 683.725 566.307, 683.078 563.223, 682.280 561 C 681.787 559.625, 681.442 553.663, 681.513 547.750 C 681.583 541.837, 681.572 537, 681.487 537 C 681.403 537, 681.033 537.300, 680.667 537.667 M 839.202 586.199 C 836.891 587.975, 835 590.004, 835 590.708 C 835 592.348, 827.048 598.148, 825.831 597.396 C 825.326 597.083, 824.248 597.379, 823.435 598.054 C 822.623 598.728, 820.730 599.465, 819.229 599.692 C 817.728 599.919, 815.375 600.330, 814 600.606 C 809.869 601.435, 810.462 601.480, 798.500 599.419 C 794.512 598.732, 788 595.836, 788 594.749 C 788 594.272, 787.530 594.172, 786.956 594.527 C 786.382 594.882, 785.184 594.571, 784.294 593.836 C 783.403 593.101, 782.882 592.950, 783.135 593.500 C 783.389 594.050, 784.868 597.138, 786.422 600.361 C 789.529 606.805, 789.754 617.051, 786.929 623.500 C 786.206 625.150, 785.589 626.950, 785.557 627.500 C 785.526 628.050, 784.933 629.099, 784.241 629.831 C 783.548 630.562, 783.206 631.524, 783.480 631.967 C 783.754 632.411, 783.308 633.329, 782.489 634.009 C 781.670 634.689, 781 635.775, 781 636.422 C 781 637.070, 780.466 638.134, 779.814 638.786 C 772.651 645.949, 786.156 647.009, 795.927 640.052 C 797.595 638.865, 799.976 637.697, 801.218 637.458 C 802.461 637.219, 804.790 636.053, 806.393 634.867 C 807.997 633.682, 810.026 632.653, 810.904 632.581 C 811.782 632.508, 814.007 631.639, 815.848 630.648 C 817.689 629.658, 820.061 628.681, 821.118 628.477 C 822.176 628.274, 824.353 627.173, 825.955 626.032 C 827.558 624.890, 829.312 624.079, 829.852 624.228 C 831.466 624.675, 838.988 619.649, 839.151 618.014 C 839.283 616.698, 839.142 612.649, 838.856 609.500 C 838.609 606.789, 840.050 599.645, 841.098 598.382 C 841.751 597.595, 842 596.666, 841.651 596.318 C 841.303 595.969, 841.437 595.179, 841.949 594.561 C 842.462 593.943, 843.102 592.222, 843.372 590.735 C 843.641 589.249, 844.142 587.579, 844.485 587.024 C 846.590 583.619, 843.240 583.095, 839.202 586.199 M 721.386 600.892 C 719.324 603.655, 717.482 606.924, 717.294 608.156 C 717.106 609.387, 716.288 611.129, 715.476 612.026 C 714.664 612.923, 714 614.465, 714 615.452 C 714 616.439, 711.993 620.059, 709.540 623.496 C 707.087 626.934, 705.334 630.001, 705.646 630.312 C 705.957 630.624, 704.738 632.930, 702.938 635.437 C 701.137 637.945, 699.962 640.295, 700.327 640.660 C 700.692 641.025, 699.868 642.796, 698.495 644.595 C 697.123 646.394, 696 648.631, 696 649.565 C 696 650.500, 695.063 652.780, 693.918 654.632 C 692.774 656.484, 692.135 658, 692.500 658 C 692.865 658, 692.195 659.567, 691.011 661.482 C 689.828 663.397, 689.110 665.369, 689.416 665.864 C 689.722 666.360, 689.050 667.938, 687.921 669.373 C 686.793 670.807, 686.104 672.360, 686.391 672.823 C 686.677 673.287, 685.827 675.262, 684.502 677.212 C 683.176 679.163, 682.357 681.024, 682.681 681.348 C 683.006 681.672, 682.542 683.050, 681.651 684.410 C 676.246 692.659, 677.131 696.581, 683.461 692.433 C 684.897 691.493, 686.842 690.662, 687.785 690.586 C 688.728 690.511, 690.905 689.691, 692.623 688.764 C 694.341 687.838, 696.005 687.338, 696.321 687.654 C 696.636 687.970, 698.096 687.283, 699.565 686.128 C 701.033 684.972, 702.640 684.278, 703.136 684.584 C 703.631 684.890, 705.534 684.215, 707.365 683.084 C 709.195 681.952, 710.973 681.307, 711.315 681.649 C 711.658 681.991, 713.062 681.534, 714.435 680.634 C 715.809 679.734, 717.745 678.874, 718.737 678.722 C 719.729 678.571, 722.211 677.415, 724.252 676.153 C 726.293 674.892, 728.354 674.101, 728.831 674.396 C 729.308 674.691, 731.557 673.565, 733.829 671.894 C 736.101 670.224, 738.352 669.099, 738.831 669.396 C 739.310 669.692, 742.557 667.924, 746.047 665.467 C 749.536 663.010, 753.166 661, 754.114 661 C 755.062 661, 757.112 660.380, 758.669 659.622 C 760.226 658.865, 763.075 657.490, 765 656.568 C 771.336 653.532, 774.547 650.364, 773.079 648.595 C 771.943 647.226, 771.406 647.351, 768.329 649.698 C 766.421 651.154, 764.046 652.405, 763.051 652.478 C 762.056 652.551, 760.009 653.419, 758.502 654.407 C 754.041 657.330, 743.592 658.315, 738.250 656.317 C 736.462 655.649, 735 655.359, 735 655.673 C 735 655.988, 734.396 655.744, 733.658 655.131 C 732.920 654.519, 732.023 654.311, 731.664 654.669 C 731.306 655.028, 730.062 654.461, 728.901 653.411 C 727.740 652.360, 726.500 651.694, 726.145 651.932 C 724.807 652.827, 719.395 639.856, 718.455 633.500 C 716.970 623.456, 717.877 615.243, 720.896 611.405 C 722.038 609.953, 722.715 608.348, 722.401 607.839 C 722.086 607.330, 722.912 605.471, 724.235 603.707 C 727.915 598.804, 728.085 598.315, 726.557 597.048 C 725.402 596.089, 724.437 596.807, 721.386 600.892 M 842.270 631.130 C 841.649 631.751, 839.962 632.389, 838.522 632.547 C 837.083 632.705, 835.328 633.313, 834.624 633.897 C 833.919 634.482, 832.469 635.094, 831.401 635.257 C 830.333 635.420, 827.807 636.574, 825.787 637.823 C 823.766 639.071, 821.179 640.273, 820.036 640.493 C 818.894 640.713, 816.548 641.897, 814.824 643.125 C 813.100 644.353, 810.935 645.413, 810.013 645.481 C 807.486 645.667, 799.004 651.312, 799.002 652.809 C 799.001 653.529, 799.436 653.849, 799.968 653.520 C 803.381 651.411, 814.534 660.133, 811.419 662.475 C 809.110 664.212, 807.917 663.927, 796.500 658.919 C 791.410 656.686, 789.043 656.122, 788.493 657.011 C 788.175 657.525, 786.247 658.407, 784.208 658.971 C 775.748 661.309, 772.483 665.988, 775.961 670.788 C 777.670 673.147, 779.442 674.845, 779.900 674.562 C 780.358 674.279, 781.538 674.937, 782.521 676.024 C 783.505 677.111, 784.860 678, 785.533 678 C 786.205 678, 787.311 678.670, 787.991 679.489 C 788.671 680.308, 789.575 680.763, 790 680.500 C 790.425 680.237, 791.325 680.687, 792 681.500 C 792.675 682.313, 793.578 682.761, 794.007 682.496 C 794.436 682.231, 796.747 682.724, 799.144 683.593 C 801.540 684.462, 804.175 685.325, 805 685.510 C 805.825 685.695, 806.500 685.916, 806.500 686 C 806.500 686.196, 809.441 686.774, 814.500 687.571 C 819.294 688.327, 833.160 688.427, 841.563 687.767 C 847.920 687.268, 853.448 684.609, 852.619 682.450 C 852.354 681.760, 852.406 680.927, 852.734 680.599 C 853.062 680.272, 853.457 678.315, 853.612 676.252 C 854.011 670.934, 854.411 669.414, 855.880 667.645 C 856.591 666.788, 856.933 665.700, 856.640 665.226 C 856.347 664.752, 856.959 663.750, 858 663 C 859.041 662.250, 859.689 661.305, 859.439 660.902 C 859.190 660.498, 860.789 658.625, 862.993 656.738 C 865.197 654.852, 867 652.811, 867 652.204 C 867 651.596, 867.788 650.659, 868.750 650.120 C 870.310 649.247, 870.213 649.031, 867.847 648.132 C 866.388 647.577, 864.894 646.638, 864.528 646.045 C 864.162 645.452, 863.503 645.189, 863.065 645.460 C 862.626 645.731, 861.462 645.063, 860.479 643.976 C 859.495 642.889, 858.115 642, 857.413 642 C 856.711 642, 855.175 640.650, 854 639 C 852.825 637.350, 851.304 636, 850.620 636 C 849.936 636, 848.378 634.650, 847.158 633 C 844.733 629.720, 843.972 629.428, 842.270 631.130 M 553 632.628 C 553 644.500, 604.074 683.300, 610.846 676.573 C 620.884 666.603, 600.563 648.782, 566.020 637.261 C 561.884 635.881, 557.263 634.122, 555.750 633.351 C 554.237 632.580, 553 632.254, 553 632.628 M 810.424 779.019 C 799.980 784.189, 799.277 797.968, 809.087 805.231 C 818.281 812.039, 832.167 804.380, 832.167 792.500 C 832.167 780.942, 820.790 773.888, 810.424 779.019 M 4615.500 846.951 C 4596.567 851.932, 4579.261 864.521, 4569.500 880.414 C 4565.500 886.926, 4565.500 886.926, 2972 887.213 C 1378.500 887.500, 1378.500 887.500, 1372.880 890.135 C 1345.354 903.042, 1345.354 940.958, 1372.880 953.865 C 1378.500 956.500, 1378.500 956.500, 2972.500 956.780 C 4566.500 957.059, 4566.500 957.059, 4569.678 962.280 C 4602.050 1015.455, 4685.184 1006.155, 4706.112 947.017 C 4726.407 889.666, 4673.833 831.607, 4615.500 846.951 M 4621.207 894.584 C 4593.563 908.360, 4603.156 950.233, 4634 950.424 C 4665.610 950.620, 4675.165 907.766, 4646.500 894.358 C 4639.201 890.944, 4628.317 891.041, 4621.207 894.584" stroke="none" fill="#ffffff" fill-rule="evenodd"/></svg>