<svg width="802" height="476" viewBox="0 0 802 476" fill="none" xmlns="http://www.w3.org/2000/svg">
<circle cx="769.472" cy="32.1123" r="32.0512" fill="#F8288C"/>
<circle cx="769.472" cy="117.29" r="32.0512" fill="#F8288C"/>
<circle cx="769.472" cy="202.467" r="32.0512" fill="#F8288C"/>
<path d="M766.398 216.078C766.398 216.776 766.676 217.447 767.17 217.941C767.664 218.435 768.334 218.712 769.033 218.712C769.732 218.712 770.402 218.435 770.896 217.941C771.39 217.447 771.667 216.776 771.667 216.078V204.662H783.083C783.781 204.662 784.451 204.385 784.945 203.891C785.44 203.397 785.717 202.727 785.717 202.028C785.717 201.329 785.44 200.659 784.945 200.165C784.451 199.671 783.781 199.394 783.083 199.394H771.667V187.978C771.667 187.279 771.39 186.609 770.896 186.115C770.402 185.621 769.732 185.344 769.033 185.344C768.334 185.344 767.664 185.621 767.17 186.115C766.676 186.609 766.398 187.279 766.398 187.978V199.394H754.983C754.284 199.394 753.614 199.671 753.12 200.165C752.626 200.659 752.349 201.329 752.349 202.028C752.349 202.727 752.626 203.397 753.12 203.891C753.614 204.385 754.284 204.662 754.983 204.662H766.398V216.078Z" fill="white"/>
<circle cx="32.7329" cy="273.594" r="32.0512" fill="#3C97FF"/>
<circle cx="32.7329" cy="358.771" r="32.0512" fill="#3C97FF"/>
<circle cx="32.7329" cy="443.949" r="32.0512" fill="#3C97FF"/>
<path d="M29.6592 457.56C29.6592 458.258 29.9368 458.928 30.4308 459.423C30.9249 459.917 31.5949 460.194 32.2936 460.194C32.9923 460.194 33.6623 459.917 34.1564 459.423C34.6504 458.928 34.9279 458.258 34.9279 457.56V446.144H46.3434C47.0421 446.144 47.7122 445.867 48.2062 445.373C48.7002 444.879 48.9778 444.209 48.9778 443.51C48.9778 442.811 48.7002 442.141 48.2062 441.647C47.7122 441.153 47.0421 440.876 46.3434 440.876H34.9279V429.46C34.9279 428.761 34.6504 428.091 34.1564 427.597C33.6623 427.103 32.9923 426.826 32.2936 426.826C31.5949 426.826 30.9249 427.103 30.4308 427.597C29.9368 428.091 29.6592 428.761 29.6592 429.46V440.876H18.2437C17.5451 440.876 16.875 441.153 16.381 441.647C15.8869 442.141 15.6094 442.811 15.6094 443.51C15.6094 444.209 15.8869 444.879 16.381 445.373C16.875 445.867 17.5451 446.144 18.2437 446.144H29.6592V457.56Z" fill="white"/>
<path d="M44.6823 257.202L14.8051 273.911C13.6384 274.561 13.7866 276.136 14.9469 276.61L21.799 279.397L40.3184 263.576C40.6729 263.269 41.1757 263.738 40.8727 264.094L25.3443 282.434V287.465C25.3443 288.939 27.1814 289.52 28.0839 288.452L32.1771 283.622L40.2088 286.883C41.1241 287.258 42.1684 286.702 42.336 285.746L46.9771 258.752C47.1963 257.489 45.7975 256.577 44.6823 257.202Z" fill="white"/>
<path d="M22.8333 351.25H21.2222V372.7C21.2222 373.575 21.5617 374.415 22.166 375.033C22.7703 375.652 23.5899 376 24.4444 376H40.5556C41.4101 376 42.2297 375.652 42.834 375.033C43.4383 374.415 43.7778 373.575 43.7778 372.7V351.25H22.8333ZM29.2778 371.05H26.0556V356.2H29.2778V371.05ZM38.9444 371.05H35.7222V356.2H38.9444V371.05ZM39.9401 346.3L37.3333 343H27.6667L25.0599 346.3H18V349.6H47V346.3H39.9401Z" fill="white"/>
<path d="M783.727 108.37C783.405 107.813 782.941 107.35 782.383 107.027C781.825 106.704 781.191 106.531 780.546 106.528H776.05V102.843C776.05 102.354 775.855 101.885 775.508 101.54C775.161 101.194 774.691 101 774.2 101H755.7C754.719 101 753.778 101.388 753.084 102.079C752.39 102.77 752 103.708 752 104.685V123.11C752.001 123.756 752.172 124.391 752.497 124.95C752.821 125.51 753.288 125.975 753.85 126.298C753.784 128.008 754.402 129.674 755.57 130.931C756.737 132.187 758.358 132.929 760.075 132.995C761.793 133.061 763.466 132.445 764.727 131.282C765.988 130.12 766.734 128.505 766.8 126.795H772.535C772.74 128.337 773.5 129.752 774.674 130.777C775.848 131.802 777.356 132.367 778.917 132.367C780.479 132.367 781.987 131.802 783.161 130.777C784.335 129.752 785.095 128.337 785.3 126.795C786.281 126.795 787.222 126.407 787.916 125.716C788.61 125.025 789 124.087 789 123.11V117.583C788.997 117.246 788.908 116.917 788.741 116.624L783.727 108.37ZM776.05 110.213H780.546L783.875 115.74H776.05V110.213ZM760.325 128.638C759.776 128.638 759.24 128.476 758.783 128.172C758.327 127.868 757.971 127.437 757.761 126.932C757.551 126.427 757.496 125.871 757.603 125.335C757.71 124.799 757.975 124.306 758.363 123.92C758.751 123.533 759.245 123.27 759.784 123.163C760.322 123.057 760.88 123.111 761.387 123.321C761.894 123.53 762.327 123.884 762.632 124.338C762.937 124.793 763.1 125.327 763.1 125.874C763.1 126.607 762.808 127.31 762.287 127.828C761.767 128.346 761.061 128.638 760.325 128.638ZM778.825 128.638C778.276 128.638 777.74 128.476 777.283 128.172C776.827 127.868 776.471 127.437 776.261 126.932C776.051 126.427 775.996 125.871 776.103 125.335C776.21 124.799 776.475 124.306 776.863 123.92C777.251 123.533 777.745 123.27 778.284 123.163C778.822 123.057 779.38 123.111 779.887 123.321C780.394 123.53 780.827 123.884 781.132 124.338C781.437 124.793 781.6 125.327 781.6 125.874C781.6 126.607 781.308 127.31 780.787 127.828C780.267 128.346 779.561 128.638 778.825 128.638Z" fill="white"/>
<path d="M772.775 39.1111H782.211V48M765.225 24.8889H755.789V16M783 26.672C781.942 24.2048 780.17 22.0667 777.886 20.5007C775.602 18.9348 772.898 18.0038 770.08 17.8136C767.262 17.6234 764.445 18.1817 761.947 19.4248C759.449 20.668 757.372 22.5463 755.951 24.8462M755 37.328C756.058 39.7948 757.83 41.9324 760.114 43.498C762.398 45.0636 765.102 45.9944 767.919 46.1846C770.736 46.3748 773.554 45.8167 776.051 44.5739C778.549 43.331 780.626 41.4532 782.047 39.1538" stroke="white" stroke-width="3" stroke-linecap="round" stroke-linejoin="round"/>
</svg>
