<svg id="Layer_1" data-name="Layer 1" xmlns="http://www.w3.org/2000/svg" viewBox="0 0 319.97 320"><defs><style>.cls-1{fill:#fff;}</style></defs><title>Free whatsapp white logo vector</title><path class="cls-1" d="M256.2,96C168.11,96,96.39,167.65,96.36,255.75a159.45,159.45,0,0,0,21.34,79.88L96,416l83.71-19.78a159.86,159.86,0,0,0,76.38,19.44h.06c88.08,0,159.77-71.67,159.81-159.75A159.77,159.77,0,0,0,256.2,96Zm0,32a127.83,127.83,0,1,1-61.09,240.13l-10.78-5.88-11.91,2.81-31.5,7.44,7.69-28.56,3.47-12.81-6.63-11.51a127.56,127.56,0,0,1-17.06-63.87C128.39,185.32,185.72,128,256.17,128Zm-56.53,54A14.69,14.69,0,0,0,189,187c-3.66,4-14,13.63-14,33.28s14.32,38.64,16.32,41.31,27.62,44.25,68.22,60.25c33.72,13.3,40.57,10.68,47.9,10s23.64-9.64,27-19,3.34-17.36,2.34-19-3.65-2.66-7.65-4.66-23.62-11.64-27.28-13-6.35-2-9,2-10.29,13-12.63,15.63-4.65,3-8.65,1-16.87-6.25-32.13-19.85c-11.87-10.57-19.88-23.62-22.22-27.62s-.22-6.17,1.78-8.16c1.8-1.79,4-4.66,6-7a27.48,27.48,0,0,0,4-6.66c1.33-2.65.65-5-.34-7S219.82,196.9,216.27,189c-3-6.64-6.16-6.79-9-6.91C205,182,202.3,182,199.64,182Z" transform="translate(-96.02 -96)"/></svg>