<svg xmlns="http://www.w3.org/2000/svg" width="4760" height="1161" viewBox="0 0 4760 1161" version="1.1"><path d="M 660.500 39.047 C 587.438 44.962, 521.404 62.874, 458.765 93.767 L 439.030 103.500 435.265 102.327 C 413.322 95.489, 389.128 111.372, 384.952 135.356 L 383.876 141.533 385.407 148.876 C 394.353 191.781, 455.306 191.873, 464.162 148.995 L 465.319 143.392 470.986 140.253 C 669.071 30.522, 940.485 88.083, 1087.485 271 C 1338.172 582.936, 1135.467 1049.661, 736.099 1080.063 C 384.799 1106.806, 115.876 764.226, 225.380 429.461 L 229.972 415.422 234.287 414.268 C 268.456 405.129, 271.926 355.320, 239.500 339.439 L 233.500 336.500 222.479 336.500 L 211.458 336.500 204.890 339.734 C 191.469 346.340, 183.167 358.676, 182.266 373.344 L 181.766 381.500 184.202 388.735 L 186.637 395.970 181.206 412.235 C 7.300 933.021, 640.584 1354.693, 1056.786 995.239 C 1449.724 655.876, 1176.764 -2.747, 660.500 39.047 M 416.898 128.258 C 403.782 136.974, 409.592 156.539, 425.226 156.303 C 440.642 156.071, 445.513 134.217, 431.619 127.623 C 426.745 125.311, 420.957 125.560, 416.898 128.258 M 664.214 172.833 C 629.992 185.030, 627.027 231.683, 659.467 247.532 L 665.433 250.447 675.044 250.833 L 684.655 251.219 690.829 248.725 C 697.837 245.894, 704.520 241.103, 708.078 236.359 L 710.500 233.129 718.500 233.626 C 888.754 244.198, 1021.749 367.740, 1046.701 538.500 L 1048.454 550.500 1048.466 583 L 1048.478 615.500 1046.705 628 C 1006.669 910.198, 674.320 1031.907, 463.193 841.687 C 448.842 828.757, 418 794.628, 418 791.678 C 418 790.588, 431.169 786.086, 439 784.500 C 447.969 782.683, 452.137 781.011, 455.622 777.829 L 457.744 775.892 458.341 777.446 C 459.113 779.459, 460.462 779.405, 467.503 777.082 L 473.316 775.164 488.408 790.368 C 584.703 887.378, 730.891 907.083, 848.202 838.865 L 854.903 834.968 859.202 835.960 C 888.024 842.608, 914.280 815.104, 906.511 786.402 C 894.931 743.623, 834.861 747.986, 827.554 792.137 L 826.952 795.774 813.200 802.827 C 717.923 851.695, 604.254 835.258, 528.239 761.619 L 516.970 750.702 522.235 747.214 C 525.131 745.296, 528.543 742.782, 529.817 741.627 L 532.134 739.526 533.912 741.883 L 535.690 744.241 539.595 742.428 C 543.249 740.732, 551.251 735.006, 553.500 732.479 C 554.050 731.861, 555.225 730.937, 556.112 730.427 C 558.821 728.869, 592.495 697.545, 598.345 691.141 C 602.022 687.116, 617.851 674.128, 621.174 672.410 C 634.514 665.512, 664.663 684.979, 663.685 699.859 C 662.086 724.170, 658.770 730.924, 638.333 751.500 C 629.291 760.602, 626.566 765.415, 626.527 772.352 L 626.500 777.203 630.500 780.581 C 642.944 791.088, 651.171 789.488, 655.501 775.719 C 656.404 772.849, 657.507 769.600, 657.952 768.500 C 661.352 760.093, 662.515 757.435, 662.985 757 C 663.283 756.725, 665.878 753.575, 668.753 750 C 678.292 738.138, 695.685 723.281, 698.685 724.433 C 699.470 724.734, 701.717 724.310, 703.678 723.490 C 705.639 722.671, 708.178 722, 709.318 722 C 710.459 722, 713.034 720.863, 715.039 719.473 C 717.045 718.083, 719.615 716.767, 720.751 716.548 C 721.887 716.329, 724.585 714.980, 726.747 713.549 C 728.909 712.118, 731.707 710.749, 732.964 710.507 C 734.221 710.265, 736.302 709.377, 737.589 708.533 C 738.876 707.690, 740.595 707, 741.408 707 C 742.221 707, 744.486 706.056, 746.443 704.901 C 748.399 703.747, 750 703.083, 750 703.427 C 750 703.770, 751.462 703.277, 753.250 702.331 C 755.038 701.385, 757.337 700.469, 758.361 700.295 C 759.384 700.121, 761.518 699.055, 763.104 697.926 C 764.689 696.797, 766.364 696.107, 766.826 696.393 C 767.288 696.678, 769.262 695.827, 771.212 694.502 C 773.163 693.176, 774.996 692.329, 775.286 692.620 C 775.577 692.910, 777.149 692.457, 778.780 691.614 C 780.412 690.770, 782.005 690.338, 782.321 690.654 C 782.636 690.970, 784.517 690.225, 786.500 689 C 788.483 687.775, 790.368 687.035, 790.690 687.356 C 791.011 687.678, 792.450 687.118, 793.887 686.113 C 795.324 685.108, 797.035 684.474, 797.689 684.706 C 798.343 684.937, 799.954 684.421, 801.269 683.559 C 802.584 682.698, 803.923 682.256, 804.244 682.578 C 804.566 682.899, 805.767 682.660, 806.914 682.046 C 808.061 681.432, 809 681.283, 809 681.715 C 809 682.147, 810.462 682.565, 812.250 682.645 C 817.686 682.887, 820.805 683.593, 822.441 684.951 C 823.298 685.663, 824 685.895, 824 685.467 C 824 685.040, 824.788 685.359, 825.750 686.177 C 827.690 687.826, 834.270 691, 835.747 691 C 836.267 691, 838.140 691.722, 839.909 692.604 C 841.677 693.487, 843.375 693.958, 843.681 693.652 C 843.988 693.346, 844.896 693.753, 845.700 694.557 C 846.504 695.361, 847.544 695.782, 848.012 695.493 C 848.479 695.204, 849.149 695.432, 849.500 696 C 849.851 696.568, 850.519 696.797, 850.985 696.509 C 851.451 696.221, 853.107 696.480, 854.666 697.085 C 860.350 699.290, 874.608 699.827, 891.500 698.473 C 906.184 697.296, 907.005 697.441, 907.428 701.292 C 907.719 703.945, 916.834 716.499, 917.781 715.552 C 918.095 715.238, 919.398 715.964, 920.676 717.165 C 921.954 718.366, 923 718.990, 923 718.552 C 923 718.114, 923.719 718.352, 924.598 719.081 C 925.476 719.810, 926.939 720.527, 927.848 720.673 C 928.756 720.819, 931.525 721.307, 934 721.756 C 940.896 723.008, 949.938 722.209, 954 719.989 C 955.375 719.238, 957.232 718.562, 958.126 718.488 C 961.188 718.233, 978.234 705, 975.500 705 C 975.055 705, 975.322 704.212, 976.095 703.250 C 979.472 699.044, 980.401 696.337, 981.422 687.734 C 981.537 686.763, 982.129 685.471, 982.737 684.863 C 983.346 684.254, 983.606 683.136, 983.315 682.378 C 983.024 681.620, 983.212 681, 983.732 681 C 985.088 681, 984.568 675.389, 983.041 673.550 C 982.334 672.697, 981.160 672, 980.434 672 C 979.707 672, 976.571 668.624, 973.465 664.497 C 970.360 660.370, 967.475 657.207, 967.055 657.466 C 966.634 657.726, 965.260 656.841, 964 655.500 C 962.740 654.159, 961.376 653.268, 960.968 653.520 C 960.560 653.772, 959.693 653.335, 959.040 652.548 C 958.388 651.762, 957.212 651.365, 956.427 651.666 C 955.642 651.968, 955 651.668, 955 651 C 955 650.332, 954.358 650.032, 953.573 650.334 C 952.788 650.635, 951.606 650.230, 950.946 649.435 L 949.745 647.988 952.425 645.880 C 953.899 644.721, 954.872 643.539, 954.587 643.253 C 954.301 642.968, 955.178 641.862, 956.534 640.795 C 957.890 639.728, 959 638.268, 959 637.550 C 959 636.832, 959.686 635.676, 960.524 634.980 C 961.362 634.284, 961.816 633.483, 961.533 633.200 C 961.249 632.916, 961.541 632.053, 962.180 631.283 C 964.575 628.397, 965.275 608.242, 963.073 605.588 C 962.388 604.763, 962.110 603.631, 962.455 603.072 C 962.801 602.513, 962.351 600.939, 961.455 599.572 C 960.560 598.206, 960.085 596.671, 960.400 596.162 C 960.715 595.652, 960.079 594.099, 958.986 592.710 C 955.481 588.253, 956.869 587.486, 960.584 591.827 C 962.555 594.130, 964.549 595.779, 965.015 595.491 C 965.481 595.203, 966.145 595.426, 966.492 595.986 C 967.184 597.106, 974.353 600.539, 979.939 602.424 C 983.400 603.592, 989.643 603.678, 997.201 602.661 C 1002.455 601.954, 1024.802 586.106, 1023.505 584.008 C 1023.209 583.529, 1023.923 582.467, 1025.092 581.648 C 1026.261 580.830, 1026.936 579.705, 1026.592 579.149 C 1026.249 578.593, 1026.396 577.873, 1026.920 577.549 C 1028.395 576.638, 1031.034 570.863, 1030.425 569.879 C 1030.126 569.395, 1030.274 569, 1030.754 569 C 1031.233 569, 1031.499 565.737, 1031.344 561.750 C 1030.960 551.852, 1030.961 551.855, 1028.803 548.771 C 1027.752 547.269, 1026.704 545.057, 1026.472 543.854 C 1026.240 542.652, 1024.470 539.409, 1022.538 536.649 L 1019.024 531.630 1020.667 529.815 C 1021.571 528.817, 1021.945 528, 1021.500 528 C 1021.055 528, 1021.479 527.128, 1022.443 526.063 C 1023.407 524.998, 1023.919 523.679, 1023.582 523.132 C 1023.244 522.585, 1023.432 521.851, 1024 521.500 C 1024.568 521.149, 1024.805 520.494, 1024.527 520.044 C 1024.249 519.595, 1024.614 518.735, 1025.337 518.135 C 1027.396 516.427, 1026.472 501.618, 1024.021 497.039 C 1023.370 495.823, 1023.082 494.585, 1023.380 494.287 C 1024.528 493.138, 1011.343 475.670, 1009.968 476.520 C 1009.524 476.794, 1008.242 475.852, 1007.120 474.426 C 1005.998 472.999, 1004.612 472.122, 1004.040 472.475 C 1003.468 472.829, 1003 472.728, 1003 472.251 C 1003 471.435, 1000.146 470.010, 992 466.760 C 987.548 464.983, 969.297 465.462, 966.098 467.439 C 964.165 468.634, 963.713 467.393, 965.150 464.836 C 965.872 463.551, 966.574 461.825, 966.711 461 C 966.848 460.175, 967.230 458.150, 967.559 456.500 C 968.535 451.614, 968.703 440.588, 967.820 439.399 C 967.370 438.793, 966.901 437.077, 966.778 435.586 C 966.654 434.095, 966.006 432.420, 965.336 431.864 C 964.667 431.308, 964.338 430.284, 964.605 429.587 C 964.872 428.890, 964.396 427.743, 963.546 427.038 C 962.695 426.332, 962 425.313, 962 424.772 C 962 423.804, 958.664 419.291, 955.245 415.634 C 952.299 412.483, 942.684 405.642, 941.029 405.521 C 940.169 405.457, 938.841 405.020, 938.078 404.548 C 937.315 404.077, 935.523 403.512, 934.096 403.293 C 932.668 403.075, 930.375 402.651, 929 402.352 C 923.539 401.165, 918.462 401.405, 916.645 402.937 C 915.625 403.796, 914.612 404.387, 914.395 404.250 C 913.008 403.372, 904 406.751, 904 408.148 C 904 408.672, 901.142 407.061, 897.648 404.569 C 894.155 402.076, 891.031 400.302, 890.706 400.627 C 890.381 400.952, 888.627 400.157, 886.808 398.859 C 883.212 396.294, 882.632 396.155, 873.012 395.544 C 868.737 395.273, 865.411 395.621, 863.262 396.566 C 861.468 397.355, 858.444 398.687, 856.542 399.527 C 854.641 400.366, 852.810 401.499, 852.473 402.043 C 852.137 402.587, 851.494 402.805, 851.043 402.527 C 849.344 401.477, 831.581 424.465, 832.414 426.636 C 832.688 427.351, 832.535 428.169, 832.074 428.454 C 831.613 428.739, 831.153 430.666, 831.051 432.736 C 830.949 434.806, 830.762 437.850, 830.635 439.500 C 830.427 442.203, 831.151 445.807, 832.747 450 C 833.061 450.825, 833.238 451.862, 833.141 452.304 C 833.044 452.746, 833.651 453.794, 834.491 454.634 C 835.331 455.474, 835.794 456.524, 835.520 456.967 C 835.246 457.411, 835.692 458.329, 836.511 459.009 C 837.330 459.689, 838 460.821, 838 461.525 C 838 462.230, 839.688 464.161, 841.750 465.817 C 843.813 467.473, 845.231 469.098, 844.903 469.428 C 844.574 469.758, 843.153 469.122, 841.745 468.014 C 840.337 466.906, 838.452 466, 837.557 466 C 836.662 466, 834.806 465.264, 833.434 464.365 C 832.061 463.465, 830.667 462.999, 830.337 463.329 C 830.007 463.660, 828.807 463.432, 827.670 462.824 C 826.534 462.215, 823.780 461.541, 821.552 461.325 C 809.708 460.176, 803.366 461.397, 797.750 465.905 C 796.788 466.678, 796 466.931, 796 466.468 C 796 466.005, 794.650 466.919, 793 468.500 C 791.350 470.081, 789.984 470.952, 789.964 470.437 C 789.944 469.922, 788.895 470.762, 787.632 472.305 L 785.337 475.111 784.341 473.805 C 783.793 473.087, 782.532 470.250, 781.539 467.500 C 780.545 464.750, 778.893 461.571, 777.866 460.436 C 776.840 459.300, 776 457.929, 776 457.389 C 776 456.849, 772.659 453.790, 768.575 450.591 C 764.490 447.393, 761.328 444.263, 761.548 443.638 C 761.767 443.012, 760.862 441.713, 759.536 440.751 L 757.126 439.002 754.479 440.008 C 753.023 440.561, 751.471 440.791, 751.029 440.518 C 750.588 440.245, 749.722 440.630, 749.106 441.373 C 748.489 442.116, 746.865 442.600, 745.497 442.450 C 744.128 442.300, 742.751 442.595, 742.435 443.105 C 742.120 443.615, 741.463 443.786, 740.975 443.484 C 740.487 443.183, 738.530 443.587, 736.626 444.383 C 734.721 445.179, 732.966 445.632, 732.724 445.391 C 732.483 445.149, 731.716 445.638, 731.020 446.476 C 730.324 447.314, 729.173 448, 728.462 448 C 727.750 448, 725.668 449.897, 723.834 452.216 L 720.500 456.433 719.862 443.466 C 719.176 429.527, 716.413 417.093, 709.648 397.500 C 707.749 392, 705.005 383.900, 703.550 379.500 C 702.096 375.100, 700.132 369.925, 699.187 368 L 697.468 364.500 694.484 364.665 C 692.843 364.756, 690.295 365.139, 688.823 365.518 L 686.145 366.205 684.017 362.032 C 682.846 359.737, 680.864 354.834, 679.613 351.137 C 677.089 343.675, 672.248 334.950, 665.804 326.249 C 663.463 323.087, 658.934 316.528, 655.741 311.672 C 652.548 306.817, 648.020 300.742, 645.680 298.172 C 643.339 295.603, 640.109 291.719, 638.502 289.542 C 627.248 274.295, 605 259.065, 605 266.607 C 605 269.086, 601.400 268.085, 598.321 264.750 C 579.568 244.435, 553.932 226.228, 536 220.489 C 532.975 219.521, 529.276 218.110, 527.780 217.354 C 524.140 215.515, 501.195 211, 495.485 211 C 490.161 211, 489.001 212.627, 490.922 217.397 C 491.609 219.104, 492.402 221.257, 492.685 222.182 L 493.198 223.864 490.849 223.255 C 489.557 222.920, 486.250 221.426, 483.500 219.935 C 480.750 218.445, 469.939 214.758, 459.476 211.744 C 449.013 208.729, 438.213 205.144, 435.476 203.777 C 422.054 197.073, 407.157 194.058, 379.608 192.471 L 368.715 191.843 367.873 193.171 C 366.493 195.348, 366.844 196.529, 370.085 200.607 L 373.170 204.488 369.835 205.903 C 368.001 206.680, 364.925 207.436, 363 207.582 C 361.075 207.729, 357.250 208.128, 354.500 208.469 C 335.686 210.807, 326.425 210.967, 305 209.327 C 291.338 208.282, 268.214 208.578, 264.907 209.841 C 263.481 210.385, 255.156 211.369, 246.407 212.027 C 226.656 213.511, 222.959 215.202, 228.321 220.295 C 229.597 221.508, 233.084 224.801, 236.071 227.614 C 247.279 238.172, 272 280.969, 272 289.815 C 272 290.661, 273.800 295.073, 276 299.618 C 281.120 310.197, 280.534 312, 271.976 312 C 265.953 312, 264.396 319.248, 269.676 322.707 C 287.257 334.227, 335.192 392, 327.169 392 C 323.729 392, 321.359 395.842, 321.882 400.574 C 321.947 401.165, 325.487 405.249, 329.750 409.651 C 334.012 414.053, 339.479 419.870, 341.899 422.577 C 355.577 437.886, 359.899 442.800, 362.061 445.500 C 363.382 447.150, 372.280 456.230, 381.834 465.679 C 398.165 481.828, 400.506 485, 396.096 485 C 382.244 485, 405.037 511.688, 437.208 533.138 C 473.264 557.179, 482.634 563.255, 489.250 566.886 C 497.403 571.361, 497.938 571.976, 495.467 574.028 L 493.934 575.300 481.527 574.158 C 467.315 572.851, 466 573.101, 466 577.107 L 466 580 459 580 L 452 580 452 573.990 L 452 567.981 447.250 570.441 C 444.637 571.794, 441.304 573.347, 439.843 573.891 C 438.048 574.559, 436.966 575.876, 436.511 577.948 C 435.783 581.264, 433.485 582.998, 429.816 583.003 C 424.362 583.009, 403.050 589.124, 396 592.704 L 388.500 596.514 388.500 599.437 L 388.500 602.361 377.960 606.561 C 358.669 614.247, 343.166 625.777, 334.352 638.993 C 332.783 641.345, 330.715 644.446, 329.755 645.884 C 328.796 647.323, 328.008 649.524, 328.005 650.775 C 327.996 654.663, 317.600 656.597, 311.543 653.838 C 307.790 652.128, 307.731 652.671, 310.328 665.005 L 312.706 676.294 305.103 683.918 L 297.500 691.542 291.750 702.375 C 288.588 708.333, 286 713.896, 286 714.736 L 286 716.263 290.060 715.719 L 294.121 715.174 293.457 718.198 C 291.416 727.487, 285.969 741.256, 279.095 754.500 C 274.813 762.750, 270.528 772.200, 269.572 775.500 C 268.617 778.800, 266.520 784.875, 264.912 789 C 260.139 801.249, 261.036 802.995, 270 798.901 C 278.956 794.811, 294.568 793.465, 323 794.332 L 328.500 794.500 328.209 799.166 C 327.809 805.577, 328.550 805.694, 340.770 801.162 C 353.625 796.393, 362.031 793.667, 362.398 794.148 C 362.546 794.342, 365.135 798.325, 368.151 803 C 502.522 1011.274, 802.953 1041.245, 980.029 864.041 C 1222.192 621.703, 1063.211 205.816, 721 186.432 L 708.500 185.724 703.247 180.933 C 693.541 172.081, 676.340 168.511, 664.214 172.833 M 669.304 197.897 C 660.151 203.648, 659.044 214.902, 666.909 222.250 L 670.923 226 676.211 225.996 C 696.409 225.982, 697.720 197.745, 677.592 196.263 C 673.751 195.981, 671.715 196.382, 669.304 197.897 M 1508.599 230.577 C 1441.431 241.020, 1404.922 289.388, 1405.020 367.801 C 1405.103 434.911, 1428.816 476.797, 1506 546.171 C 1561.848 596.368, 1577.398 623.291, 1577.229 669.500 L 1577.175 684.500 1575.109 692.325 C 1568.756 716.393, 1551.220 727.388, 1524.574 724.009 C 1496.550 720.456, 1488.133 705.730, 1487.276 658.750 L 1486.787 632 1444.894 632 L 1403 632 1403.009 652.250 C 1403.052 755.381, 1441.511 802.478, 1527.500 804.700 L 1548.500 805.242 1559.765 803.584 C 1629.703 793.292, 1666 745.030, 1666 662.327 C 1666 589.831, 1643.674 549.098, 1566 479.883 C 1510.464 430.395, 1494.054 403.616, 1494.013 362.410 C 1493.976 325.367, 1511.253 306.425, 1542.158 309.626 C 1570.089 312.519, 1579.707 327.637, 1580.727 370.250 L 1581.272 393 1623.136 393 L 1665 393 1664.991 377.250 C 1664.933 269.433, 1607.163 215.254, 1508.599 230.577 M 2847.599 230.577 C 2783.759 240.503, 2750.281 281.965, 2745.924 356.500 C 2744.388 382.785, 2745.244 683.694, 2746.886 694.500 C 2758.210 769.014, 2800.095 805, 2875.500 805 C 2931.313 805, 2969.197 784.366, 2990.248 742.500 C 3002.847 717.446, 3005.958 694.656, 3005.985 627.239 L 3006 587.978 2963.750 588.239 L 2921.500 588.500 2920.954 640 C 2920.548 678.286, 2920.074 692.526, 2919.107 695.500 C 2905.801 736.415, 2846.923 734.831, 2836.241 693.271 L 2834.500 686.500 2834.500 517 L 2834.500 347.500 2836.334 341 C 2848.543 297.733, 2909.256 297.801, 2919.460 341.093 L 2920.970 347.500 2920.985 386.761 L 2921 426.022 2963.250 425.761 L 3005.500 425.500 3005.797 398 C 3006.597 323.850, 2997.713 291.001, 2969 261.939 C 2942.766 235.386, 2895.391 223.147, 2847.599 230.577 M 3290.698 230.511 C 3224.597 241.192, 3189.300 283.737, 3184.991 357.920 C 3183.736 379.524, 3183.733 654.418, 3184.987 676 C 3189.812 759.017, 3233.212 802.742, 3312.784 804.751 C 3393.138 806.781, 3438.723 770.173, 3450.693 694 L 3452.500 682.500 3452.500 517 L 3452.500 351.500 3450.707 340 C 3438.062 258.921, 3376.323 216.674, 3290.698 230.511 M 4582.500 230.583 C 4528.095 238.983, 4495.294 271.404, 4483.802 328.138 L 4481.500 339.500 4481.500 517 L 4481.500 694.500 4483.781 705.755 C 4499.792 784.750, 4572.097 823.877, 4656.811 799.388 C 4720.256 781.048, 4740.967 738.942, 4740.991 628.250 L 4741 588 4699.095 588 L 4657.189 588 4656.729 637.250 L 4656.269 686.500 4654.609 692.907 C 4643.477 735.891, 4582.266 736.255, 4571.271 693.404 L 4569.500 686.500 4569.500 517 L 4569.500 347.500 4571.334 341 C 4583.560 297.673, 4643.567 297.740, 4654.577 341.093 L 4656.204 347.500 4656.720 386.761 L 4657.235 426.022 4698.868 425.761 L 4740.500 425.500 4740.791 397 C 4741.541 323.585, 4732.513 290.503, 4703.897 261.799 C 4677.467 235.288, 4630.405 223.187, 4582.500 230.583 M 1913.549 238.250 C 1912.993 240.038, 1822.962 794.245, 1822.983 795.750 L 1823 797 1863.889 797 L 1904.777 797 1905.347 793.750 C 1905.660 791.962, 1909.096 768.450, 1912.983 741.500 C 1916.869 714.550, 1920.273 691.483, 1920.546 690.241 L 1921.043 687.981 1970.771 688.241 L 2020.500 688.500 2028.184 741.500 C 2032.411 770.650, 2035.898 795.063, 2035.934 795.750 L 2036 797 2080.579 797 L 2125.159 797 2124.574 794.250 C 2123.802 790.619, 2034 238.968, 2034 237.858 C 2034 237.386, 2006.986 237, 1973.969 237 L 1913.937 237 1913.549 238.250 M 2294 456.326 C 2294 604.129, 2294.348 679.215, 2295.066 686.576 C 2301.506 752.551, 2333.732 790.959, 2392.500 802.702 L 2401.500 804.500 2426.500 804.453 L 2451.500 804.407 2461.183 802.251 C 2514.263 790.432, 2542.339 760.360, 2554.316 702.500 L 2556.385 692.500 2556.714 464.750 L 2557.042 237 2514.544 237 L 2472.047 237 2471.741 461.250 L 2471.435 685.500 2469.725 691.769 C 2457.065 738.171, 2392.825 736.199, 2384.434 689.151 L 2383.070 681.500 2383.035 459.250 L 2383 237 2338.500 237 L 2294 237 2294 456.326 M 3617 277 L 3617 317 3663 317 L 3709 317 3709 557 L 3709 797 3753.500 797 L 3798 797 3798 557 L 3798 317 3844 317 L 3890 317 3890 277 L 3890 237 3753.500 237 L 3617 237 3617 277 M 4063 517 L 4063 797 4183.500 797 L 4304 797 4304 757 L 4304 717 4228 717 L 4152 717 4152 631 L 4152 545 4212.500 545 L 4273 545 4273 505 L 4273 465 4212.500 465 L 4152 465 4152 391 L 4152 317 4228 317 L 4304 317 4304 277 L 4304 237 4183.500 237 L 4063 237 4063 517 M 3309 310.107 C 3291.728 312.594, 3280.645 323.468, 3275.294 343.176 L 3273.578 349.500 3273.242 510 C 3272.894 676.013, 3273.044 683.457, 3276.987 696.224 C 3289.493 736.713, 3349.270 734.263, 3361.134 692.775 L 3363.500 684.500 3363.500 518 C 3363.500 342.975, 3363.599 347.020, 3358.996 334.718 C 3352.012 316.055, 3332.931 306.662, 3309 310.107 M 1969.734 336 C 1969.415 336.825, 1960.788 398.250, 1950.563 472.500 C 1940.339 546.750, 1931.797 608.288, 1931.580 609.250 L 1931.187 611 1970.403 611 L 2009.619 611 2001.317 552.250 C 1979.462 397.595, 1970.266 334.626, 1969.734 336 M 214 363.181 C 204.310 369.711, 204.842 383.759, 214.984 389.148 C 230.416 397.349, 244.987 377.520, 232.619 365.152 L 229.102 361.635 223.301 361.229 L 217.500 360.823 214 363.181 M 853.872 476.770 C 853.802 477.171, 853.638 478.527, 853.507 479.782 C 853.377 481.037, 853 482.333, 852.670 482.663 C 852.340 482.993, 852.532 484.126, 853.097 485.181 C 853.661 486.236, 854.340 488.899, 854.605 491.099 C 854.871 493.300, 855.518 496.233, 856.045 497.617 L 857.002 500.134 859.251 499.445 C 860.488 499.066, 862.073 498.296, 862.774 497.735 C 863.475 497.174, 864.338 497.005, 864.693 497.360 C 865.048 497.714, 866.162 497.259, 867.169 496.347 C 868.176 495.436, 869 495.055, 869 495.500 C 869 495.945, 869.888 495.506, 870.974 494.523 L 872.949 492.736 875.491 494.402 L 878.034 496.068 877.043 497.919 C 876.215 499.468, 870.709 501.883, 870.404 500.832 C 870.351 500.649, 869.563 501.118, 868.654 501.872 C 867.744 502.627, 867 502.910, 867 502.500 C 867 502.090, 866.264 502.366, 865.364 503.112 C 864.465 503.859, 863.227 504.521, 862.614 504.583 C 862.002 504.645, 860.730 504.764, 859.789 504.848 C 857.343 505.065, 854 508.982, 854 511.630 C 854 512.868, 853.602 514.128, 853.115 514.429 C 851.987 515.126, 851.091 521, 852.113 521 C 852.535 521, 852.778 522.237, 852.652 523.750 C 852.343 527.479, 854.433 529.323, 859.369 529.674 C 861.641 529.836, 864.850 530.213, 866.500 530.513 C 868.150 530.813, 870.175 531.111, 871 531.176 C 871.825 531.241, 873.388 531.903, 874.473 532.647 C 878.589 535.471, 888 527.937, 888 521.818 C 888 521.073, 889.104 518.839, 890.454 516.853 C 891.804 514.867, 892.652 512.986, 892.340 512.673 C 892.028 512.361, 892.775 510.483, 894 508.500 C 895.225 506.517, 895.965 504.632, 895.644 504.310 C 895.322 503.989, 895.976 502.437, 897.098 500.863 C 898.219 499.288, 898.640 498, 898.033 498 C 897.234 498, 897.229 497.440, 898.016 495.970 L 899.102 493.941 891.551 486.390 C 887.398 482.237, 884 478.187, 884 477.391 C 884 476.304, 883.066 476.058, 880.250 476.401 C 878.188 476.652, 876.500 476.927, 876.500 477.012 C 876.500 477.781, 866.043 478.194, 863 477.546 C 857.498 476.374, 853.994 476.076, 853.872 476.770 M 912.199 496.735 C 910.396 497.380, 905.787 504.885, 906.311 506.323 C 906.546 506.971, 906.109 508.226, 905.338 509.113 C 904.568 510, 903.734 511.784, 903.485 513.076 C 903.236 514.369, 901.675 517.317, 900.016 519.627 C 898.357 521.937, 897 524.371, 897 525.036 C 897 525.702, 895.031 529.005, 892.625 532.377 C 890.031 536.012, 888.250 539.616, 888.250 541.230 L 888.250 543.952 893.953 539.952 C 897.090 537.752, 900.625 535.765, 901.809 535.537 C 902.993 535.309, 905.883 533.848, 908.231 532.292 C 912.441 529.501, 918.072 527.012, 921 526.648 C 923.079 526.390, 927.074 524.138, 929.711 521.737 L 931.923 519.724 930.915 517.841 C 930.361 516.806, 930.124 515.609, 930.388 515.182 C 930.652 514.754, 930.496 513.803, 930.042 513.068 C 929.588 512.333, 929.548 510.555, 929.954 509.116 C 930.858 505.914, 930.292 504, 928.441 504 L 927.050 504 928.014 501.464 C 929.083 498.651, 928.552 498.253, 923.500 498.083 C 918.510 497.915, 915.553 497.519, 914.500 496.878 C 913.950 496.544, 912.915 496.479, 912.199 496.735 M 773.268 509.578 C 770.645 512.096, 768.050 514.233, 767.500 514.328 C 766.950 514.422, 765.779 515.279, 764.898 516.232 C 764.018 517.184, 763.016 517.683, 762.673 517.339 C 762.329 516.996, 761.396 517.256, 760.599 517.918 C 759.802 518.579, 757.879 519.287, 756.325 519.491 C 754.771 519.695, 753.500 519.942, 753.500 520.039 C 753.500 520.136, 751.547 520.333, 749.161 520.475 C 741.636 520.925, 740.391 523.225, 739.410 538.500 C 738.713 549.362, 738.709 550.741, 739.355 556.500 C 740.410 565.902, 741.006 569.144, 742.038 571.071 C 742.606 572.132, 742.740 573, 742.335 573 C 741.931 573, 742.105 573.505, 742.722 574.122 C 743.339 574.739, 743.606 575.864, 743.315 576.622 C 743.024 577.380, 743.311 578, 743.952 578 C 744.593 578, 744.869 578.403, 744.564 578.896 C 744.052 579.726, 745.132 582.361, 747.477 586 C 748.009 586.825, 748.539 588.130, 748.655 588.900 C 748.772 589.670, 749.311 590.574, 749.853 590.909 C 750.396 591.245, 750.988 592.190, 751.170 593.009 C 751.522 594.599, 755.398 598.492, 758.183 600.055 L 759.867 600.999 763.433 596.647 C 765.395 594.253, 767 591.748, 767 591.081 C 767 590.414, 767.550 588.886, 768.223 587.684 C 769.679 585.084, 769.964 581, 768.689 581 C 768.193 581, 768.032 580.358, 768.334 579.573 C 768.635 578.788, 768.238 577.612, 767.452 576.960 C 766.665 576.307, 766.246 575.411, 766.520 574.967 C 766.794 574.524, 766.311 573.453, 765.445 572.588 C 764.580 571.723, 764.134 570.593, 764.453 570.077 C 764.772 569.561, 764.615 568.880, 764.105 568.565 C 762.903 567.822, 763.414 563.186, 764.857 561.743 C 766.178 560.422, 771.328 564.660, 770.341 566.257 C 770.013 566.789, 770.281 567.556, 770.938 567.962 C 771.595 568.368, 772.294 569.555, 772.490 570.600 C 772.686 571.645, 772.938 572.612, 773.048 572.750 C 773.257 573.009, 773.658 574.456, 773.875 575.737 C 773.944 576.142, 775.760 574.010, 777.911 570.998 C 780.062 567.986, 781.605 565.170, 781.340 564.741 C 781.074 564.311, 782.224 562.101, 783.894 559.829 C 785.565 557.557, 786.690 555.307, 786.394 554.829 C 786.099 554.351, 787.239 552.080, 788.928 549.783 C 790.618 547.486, 792 544.881, 792 543.994 C 792 543.108, 792.661 541.509, 793.468 540.441 C 794.276 539.374, 794.965 537.600, 795 536.500 C 795.035 535.400, 795.711 533.645, 796.502 532.600 L 797.940 530.700 791.867 523.850 C 788.527 520.082, 786.150 517, 786.584 517 C 787.019 517, 786.159 515.731, 784.673 514.181 C 783.187 512.630, 782.214 511.119, 782.510 510.823 C 782.806 510.527, 782.389 509.738, 781.584 509.069 C 780.778 508.401, 780.365 507.212, 780.666 506.427 C 781.802 503.467, 777.901 505.129, 773.268 509.578 M 730.594 520.750 C 730.268 523.362, 729.527 530.450, 728.948 536.500 C 726.460 562.505, 722.086 573.441, 706.037 593.788 C 702.442 598.346, 698.600 603.308, 697.500 604.814 C 696.400 606.320, 693.869 609.791, 691.876 612.526 C 686.811 619.477, 684.838 623.677, 679.417 639.059 L 674.679 652.500 674.590 667.500 L 674.500 682.500 677.297 688.500 C 680.043 694.391, 691.151 707, 693.595 707 C 695.514 707, 703.773 702.033, 704.349 700.533 C 704.645 699.762, 705.857 698.612, 707.042 697.977 L 709.198 696.824 708.524 700.162 C 708.154 701.998, 707.603 704.400, 707.301 705.500 L 706.752 707.500 709.345 705.105 C 710.771 703.787, 711.735 702.381, 711.487 701.980 C 711.239 701.578, 712.462 699.282, 714.204 696.878 C 715.945 694.473, 717.425 691.771, 717.491 690.874 C 717.557 689.977, 718.406 688.030, 719.377 686.547 C 720.349 685.064, 721.310 682.986, 721.514 681.928 C 721.718 680.870, 722.528 678.766, 723.315 677.252 C 725.565 672.925, 728 667.031, 728 665.913 C 728 665.352, 729.105 663.268, 730.456 661.280 C 731.806 659.292, 732.678 657.288, 732.393 656.826 C 732.107 656.364, 732.802 654.682, 733.937 653.089 C 735.072 651.495, 736 649.559, 736 648.787 C 736 648.014, 736.661 646.509, 737.468 645.441 C 738.276 644.374, 738.951 642.588, 738.968 641.473 C 738.986 640.357, 739.605 638.557, 740.345 637.473 C 741.084 636.388, 741.946 634.600, 742.260 633.500 C 742.574 632.400, 743.751 629.082, 744.875 626.127 C 745.998 623.171, 746.883 620.471, 746.840 620.127 C 746.798 619.782, 746.890 619.050, 747.046 618.500 C 747.752 616.005, 747.443 606, 746.660 606 C 746.179 606, 746.022 605.384, 746.312 604.631 C 746.601 603.877, 745.974 601.842, 744.919 600.106 C 743.863 598.371, 743 596.343, 743 595.598 C 743 594.854, 742.330 593.689, 741.511 593.009 C 740.692 592.329, 740.249 591.405, 740.527 590.956 C 740.805 590.506, 740.568 589.851, 740 589.500 C 739.432 589.149, 739.204 588.479, 739.493 588.012 C 739.782 587.544, 739.286 586.429, 738.390 585.533 C 737.495 584.637, 737.037 583.630, 737.372 583.294 C 737.708 582.959, 737.481 582.080, 736.869 581.342 C 736.256 580.604, 736.012 580, 736.327 580 C 736.641 580, 736.264 578.482, 735.489 576.627 C 734.713 574.772, 734.299 573.034, 734.568 572.766 C 734.836 572.497, 734.530 570.977, 733.888 569.389 C 732.270 565.389, 731.543 551.579, 732.445 542 C 732.730 538.975, 733.176 534.250, 733.435 531.500 C 733.695 528.750, 734.103 525.159, 734.342 523.520 C 734.821 520.228, 733.571 516, 732.119 516 C 731.607 516, 730.921 518.138, 730.594 520.750 M 840.629 530.791 C 840.102 531.644, 834.429 533.295, 831.500 533.448 C 830.950 533.477, 830.230 533.867, 829.900 534.316 C 829.570 534.766, 828.445 535.294, 827.400 535.490 C 826.355 535.686, 825.500 535.927, 825.500 536.025 C 825.500 536.567, 812.742 536.391, 812.404 535.844 C 812.180 535.483, 811.146 535.411, 810.105 535.683 C 808.028 536.226, 801.714 544.381, 802.648 545.314 C 802.967 545.634, 802.167 547.606, 800.870 549.697 C 799.573 551.789, 798.627 553.854, 798.768 554.286 C 798.909 554.718, 797.893 556.735, 796.512 558.768 C 795.130 560.801, 794 563.059, 794 563.785 C 794 564.512, 792.875 566.762, 791.500 568.785 C 790.125 570.809, 788.987 573.147, 788.972 573.982 C 788.957 574.817, 787.607 577.268, 785.972 579.428 C 784.337 581.589, 783 584.076, 783 584.956 C 783 585.835, 782.273 587.593, 781.384 588.862 C 780.195 590.559, 780.063 591.463, 780.884 592.284 C 781.498 592.898, 782 594.240, 782 595.267 L 782 597.135 784.250 596.449 C 785.487 596.072, 787.212 595.141, 788.081 594.380 C 788.951 593.618, 789.899 593.232, 790.189 593.522 C 790.478 593.811, 791.284 593.362, 791.980 592.524 C 792.676 591.686, 794.090 591, 795.122 591 C 796.155 591, 797 590.502, 797 589.893 C 797 589.284, 797.620 589.024, 798.378 589.315 C 799.136 589.606, 800.244 589.356, 800.839 588.761 C 802.559 587.041, 809.248 586.392, 815.184 587.368 C 817.819 587.801, 819.118 588.370, 827.837 592.904 C 833.091 595.637, 833.677 595.275, 831.117 590.876 C 827.722 585.042, 825.070 567.639, 826.489 560.500 C 826.817 558.850, 827.096 556.743, 827.110 555.817 C 827.123 554.891, 827.779 553.598, 828.567 552.944 C 829.355 552.290, 830 550.788, 830 549.605 C 830 547.166, 835.723 539.710, 836.993 540.495 C 837.450 540.778, 839.278 539.175, 841.054 536.932 L 844.283 532.855 842.760 531.331 C 841.849 530.420, 840.993 530.203, 840.629 530.791 M 926.995 535.415 C 926.487 535.917, 925.182 536.394, 924.096 536.475 C 923.010 536.555, 920.519 537.381, 918.560 538.310 C 916.602 539.240, 913.350 540.788, 911.334 541.750 C 909.317 542.712, 906.935 543.547, 906.040 543.604 C 905.145 543.661, 901.957 545.434, 898.956 547.545 C 895.955 549.656, 893.383 551.452, 893.239 551.535 C 893.096 551.619, 893.691 553.671, 894.561 556.094 C 895.431 558.517, 896.289 564.037, 896.467 568.360 C 896.876 578.267, 897.880 579.456, 905.749 579.345 C 914.501 579.222, 920.806 577.426, 921.125 574.965 C 921.288 573.703, 921.686 572.127, 922 571.500 C 922.138 571.225, 922.306 570.572, 922.375 570.050 C 922.444 569.528, 923.027 568.573, 923.672 567.928 C 924.316 567.284, 924.606 566.136, 924.315 565.378 C 924.024 564.620, 924.332 564, 925 564 C 925.668 564, 925.968 563.358, 925.666 562.573 C 925.365 561.788, 925.762 560.612, 926.548 559.960 C 927.335 559.307, 927.763 558.425, 927.500 558 C 926.736 556.764, 929.598 554.908, 931.275 555.552 C 933.496 556.404, 934.269 560.275, 932.484 561.610 C 931.668 562.221, 931 563.368, 931 564.160 C 931 564.952, 930.460 566.140, 929.800 566.800 C 929.140 567.460, 928.970 568, 929.422 568 C 929.875 568, 929.663 568.702, 928.951 569.559 C 925.806 573.349, 928.333 578.796, 932.785 577.820 C 934.182 577.514, 941.030 579.240, 941.512 580.019 C 941.782 580.455, 942.789 580.657, 943.751 580.466 C 944.713 580.276, 946.676 579.875, 948.114 579.575 L 950.728 579.030 950.340 576.518 C 950.126 575.136, 949.698 572.767, 949.388 571.253 C 948.468 566.759, 948.856 558.907, 950.119 556.458 C 951.373 554.024, 951.102 549, 949.715 549 C 948.926 549, 947.456 547.902, 946.448 546.560 C 945.440 545.218, 944.275 544.330, 943.860 544.586 C 943.445 544.843, 941.253 542.600, 938.989 539.602 L 934.874 534.151 931.396 534.325 C 929.484 534.421, 927.503 534.912, 926.995 535.415 M 889.250 590.863 C 887.462 592.394, 886 594.173, 886 594.817 C 886 596.379, 878.001 602.119, 876.831 601.396 C 876.326 601.083, 875.248 601.379, 874.435 602.054 C 873.623 602.728, 871.730 603.465, 870.229 603.692 C 868.728 603.919, 866.375 604.341, 865 604.630 C 860.924 605.487, 859.489 605.388, 849.247 603.553 C 846.621 603.083, 837.023 599.226, 833.783 597.340 C 833.389 597.111, 834.446 599.528, 836.132 602.711 L 839.198 608.500 838.715 618 C 838.262 626.902, 836.532 632.935, 833.980 634.512 C 833.489 634.816, 833.319 635.667, 833.601 636.403 C 833.884 637.139, 833.386 638.022, 832.494 638.364 C 831.603 638.706, 831.168 639.463, 831.528 640.046 C 831.889 640.629, 831.339 641.870, 830.306 642.803 C 828.227 644.683, 827.821 648.493, 829.700 648.497 C 830.360 648.499, 831.416 649.016, 832.048 649.648 C 833.236 650.836, 833.581 650.729, 842 646.549 C 843.925 645.594, 846.625 644.254, 848 643.572 C 849.375 642.889, 852.816 641.132, 855.647 639.666 C 858.478 638.200, 861.403 636.990, 862.147 636.978 C 862.891 636.966, 864.625 636.076, 866 635 C 867.375 633.924, 869.452 633.034, 870.615 633.022 C 871.778 633.010, 873.926 632.059, 875.388 630.909 C 876.850 629.760, 879.147 628.698, 880.494 628.550 C 881.841 628.402, 884.433 627.144, 886.255 625.755 L 889.568 623.228 889.500 615.040 C 889.462 610.536, 889.792 606.629, 890.232 606.357 C 890.672 606.084, 890.808 605.498, 890.532 605.052 C 890.257 604.607, 890.798 602.726, 891.733 600.871 C 892.669 599.017, 893.589 596.375, 893.779 595 C 893.968 593.625, 894.511 592.108, 894.984 591.628 C 898.534 588.029, 893.366 587.340, 889.250 590.863 M 771.750 605.142 C 769.688 607.953, 768 610.914, 768 611.722 C 768 612.530, 767.072 614.495, 765.937 616.089 C 764.802 617.682, 764.115 619.377, 764.410 619.854 C 764.705 620.331, 762.938 623.597, 760.484 627.111 C 758.030 630.625, 756.017 634.094, 756.011 634.820 C 756.005 635.546, 754.763 638.021, 753.250 640.320 C 751.737 642.619, 750.357 645.175, 750.182 646 C 750.007 646.825, 749.111 648.625, 748.190 650 C 747.270 651.375, 746.465 653.241, 746.400 654.147 C 746.336 655.053, 745.316 657.152, 744.134 658.811 C 742.919 660.518, 742.438 661.979, 743.026 662.175 C 743.598 662.366, 742.941 664.047, 741.566 665.910 C 740.191 667.774, 739.305 669.684, 739.596 670.156 C 739.888 670.628, 739.262 672.248, 738.206 673.757 C 737.149 675.266, 736.482 677.058, 736.723 677.740 C 736.963 678.423, 736.224 680.171, 735.080 681.625 C 733.936 683.080, 733 685.009, 733 685.912 C 733 686.816, 732.299 688.556, 731.442 689.779 C 730.586 691.002, 729.724 692.790, 729.528 693.751 C 729.332 694.713, 728.874 696.253, 728.509 697.173 C 727.705 699.200, 729.393 699.093, 734.163 696.815 C 740.116 693.972, 745.457 691.800, 747.427 691.419 C 748.486 691.214, 749.814 690.586, 750.377 690.023 C 750.939 689.461, 752.322 688.997, 753.450 688.993 C 754.577 688.990, 756.822 688.115, 758.438 687.050 C 760.053 685.985, 761.714 685.323, 762.127 685.579 C 762.541 685.835, 764.338 685.157, 766.119 684.074 C 767.901 682.990, 769.720 682.327, 770.162 682.600 C 770.603 682.873, 772.623 681.969, 774.649 680.592 C 776.676 679.215, 778.705 678.318, 779.159 678.598 C 779.612 678.878, 782.044 677.690, 784.562 675.957 C 787.080 674.225, 789.389 673.055, 789.692 673.358 C 789.995 673.662, 792.985 672.048, 796.336 669.772 C 799.687 667.496, 803.178 665.579, 804.093 665.512 C 805.009 665.444, 806.921 664.626, 808.344 663.694 C 809.766 662.763, 811.700 662, 812.642 662 C 813.583 662, 816.762 660.341, 819.705 658.314 L 825.057 654.628 823.575 653.146 L 822.092 651.664 818.242 654.332 C 816.125 655.799, 813.832 657, 813.147 657 C 812.461 657, 810.461 657.776, 808.700 658.725 C 803.843 661.342, 795.021 662.254, 789.500 660.709 C 787.850 660.247, 785.825 659.708, 785 659.511 C 784.175 659.314, 783.500 659.084, 783.500 659 C 783.500 658.916, 782.608 658.681, 781.518 658.478 C 780.428 658.275, 779.377 657.632, 779.183 657.048 C 778.988 656.465, 778.382 656.264, 777.835 656.602 C 776.838 657.218, 773.541 653.378, 773.454 651.500 C 773.428 650.950, 772.785 649.375, 772.024 648 C 769.657 643.726, 768.286 635.819, 768.459 627.454 L 768.626 619.425 770.992 616.225 C 772.293 614.465, 773.062 612.729, 772.700 612.367 C 772.339 612.005, 773.560 609.637, 775.414 607.105 L 778.785 602.500 777.435 601.250 C 775.643 599.592, 776.002 599.346, 771.750 605.142 M 602 631.965 C 602 635.258, 609.694 646.327, 616.726 653.148 L 624.500 660.690 641.287 668.881 C 660.519 678.264, 660 678.274, 660 668.518 L 660 661.153 657.326 657.975 C 654.219 654.284, 629.839 642.078, 614.432 636.501 C 609.058 634.555, 604.062 632.467, 603.331 631.859 C 602.348 631.044, 602 631.071, 602 631.965 M 892.072 635.662 C 890.861 636.510, 889.608 636.942, 889.288 636.621 C 888.738 636.071, 887.264 636.728, 875.853 642.606 C 873.297 643.923, 870.589 645, 869.835 645 C 869.081 645, 866.809 646.125, 864.785 647.500 C 862.762 648.875, 860.368 650, 859.467 650 C 857.270 650, 848.920 656.062, 849.601 657.163 C 849.896 657.641, 850.526 657.793, 851 657.500 C 851.474 657.207, 852.149 657.432, 852.500 658 C 852.851 658.568, 853.506 658.805, 853.956 658.527 C 854.405 658.249, 855.325 658.687, 856 659.500 C 856.675 660.313, 857.560 660.772, 857.968 660.520 C 858.376 660.268, 859.741 661.160, 861.001 662.502 L 863.294 664.941 862.086 666.396 C 860.861 667.872, 857.408 667.988, 855.208 666.628 C 854.543 666.218, 854 666.203, 854 666.596 C 854 666.989, 853.100 666.495, 852 665.500 C 850.900 664.505, 850 664.055, 850 664.500 C 850 664.945, 849.156 664.546, 848.125 663.613 C 847.094 662.680, 845.856 661.989, 845.375 662.077 C 844.894 662.165, 844.275 662.149, 844 662.042 C 841.952 661.243, 839.344 661.281, 837.754 662.132 C 836.718 662.686, 834.995 663.308, 833.926 663.514 C 830.851 664.106, 822.992 670.171, 823.711 671.397 C 825.706 674.796, 829.324 678.918, 829.966 678.521 C 830.375 678.268, 831.740 679.159, 833 680.500 C 834.260 681.841, 835.624 682.732, 836.032 682.480 C 836.440 682.228, 837.325 682.687, 838 683.500 C 838.675 684.313, 839.676 684.700, 840.225 684.361 C 840.774 684.021, 841.556 684.281, 841.962 684.938 C 842.368 685.595, 843.330 686.228, 844.100 686.345 C 844.870 686.461, 846.063 686.908, 846.750 687.337 C 847.438 687.767, 848 687.860, 848 687.546 C 848 687.231, 849.680 687.675, 851.734 688.533 C 853.788 689.391, 856.600 690.267, 857.984 690.479 C 859.368 690.692, 862.525 691.209, 865 691.628 C 869.556 692.401, 891.274 692.454, 896.154 691.704 C 900.644 691.014, 903.470 687.964, 903.757 683.500 C 903.989 679.880, 904.527 676.321, 905.042 675 C 905.149 674.725, 905.187 674.173, 905.126 673.773 C 905.065 673.373, 905.906 671.573, 906.995 669.773 C 908.084 667.973, 909.406 665.600, 909.933 664.500 C 910.460 663.400, 912.462 661.375, 914.380 660 C 916.299 658.625, 918.123 656.825, 918.435 656 C 918.746 655.175, 919.246 653.991, 919.544 653.369 C 919.845 652.744, 918.951 651.954, 917.544 651.600 C 916.145 651.249, 915 650.535, 915 650.012 C 915 649.490, 914.352 649.311, 913.561 649.615 C 912.744 649.928, 911.558 649.266, 910.820 648.084 C 910.104 646.938, 908.713 646, 907.728 646 C 906.743 646, 905.704 645.391, 905.418 644.647 C 905.133 643.903, 902.508 641.230, 899.586 638.707 L 894.273 634.120 892.072 635.662 M 860.962 783.250 C 857.607 784.942, 855.919 786.671, 854.157 790.222 L 851.815 794.944 852.501 799.007 C 854.918 813.312, 872.386 816.378, 880.815 803.976 L 883.178 800.500 882.729 795.676 C 882.035 788.226, 874.536 781, 867.500 781 C 866.358 781, 863.416 782.013, 860.962 783.250" stroke="none" fill="#141c4c" fill-rule="evenodd"/></svg>